<svg version="1.1" viewBox="0.0 0.0 1104.0 432.0" fill="none" stroke="none" stroke-linecap="square" stroke-miterlimit="10" xmlns:xlink="http://www.w3.org/1999/xlink" xmlns="http://www.w3.org/2000/svg"><clipPath id="g14410d890c2_0_454.0"><path d="m0 0l1104.0 0l0 432.0l-1104.0 0l0 -432.0z" clip-rule="nonzero"/></clipPath><g clip-path="url(#g14410d890c2_0_454.0)"><path fill="#ffffff" d="m0 0l1104.0 0l0 432.0l-1104.0 0z" fill-rule="evenodd"/><path fill="#eeeeee" d="m279.7752 163.16182l16.503937 26.86615l-24.251984 14.866135l-16.503922 -26.866135z" fill-rule="evenodd"/><path fill="#000000" d="m276.9491 182.49553l-4.3762207 -0.61628723l-0.12609863 2.0932617l4.336975 -0.074417114l-2.1238708 3.8860168l1.9786682 0.8030548l1.446167 -4.093689l2.9390564 2.9634094l1.4046326 -1.594101l-3.3891907 -2.4125824l4.0246887 -2.0455475l-1.104126 -1.7973328l-3.6115112 2.5986786l-0.6080322 -4.1540375l-2.0322876 0.51268005l1.2411499 3.930893z" fill-rule="nonzero"/><path fill="#eeeeee" d="m428.50662 174.09985l31.527557 0l0 28.472443l-31.527557 0z" fill-rule="evenodd"/><path fill="#000000" d="m449.9959 187.5942q0.046875 -1.5 -0.296875 -2.71875q-0.328125 -1.234375 -1.0 -2.109375q-0.6875 -0.875 -1.671875 -1.359375q-0.984375 -0.484375 -2.234375 -0.484375q-1.375 0 -2.515625 0.609375q-1.125 0.609375 -1.953125 1.671875q-0.84375 1.09375 -1.34375 2.5625q-0.5 1.46875 -0.5625 3.109375q-0.046875 1.640625 0.265625 2.984375q0.328125 1.328125 1.046875 2.265625q0.703125 0.9375 1.796875 1.453125q1.109375 0.515625 2.640625 0.515625q0.34375 0 0.71875 -0.046875q0.375 -0.046875 0.75 -0.140625q0.375 -0.09375 0.71875 -0.234375q0.34375 -0.15625 0.625 -0.359375l-0.34375 -1.3125q-0.234375 0.125 -0.53125 0.234375q-0.28125 0.109375 -0.59375 0.203125q-0.34375 0.078125 -0.671875 0.125q-0.328125 0.046875 -0.640625 0.046875q-1.09375 0 -1.90625 -0.359375q-0.8125 -0.375 -1.34375 -1.109375q-0.53125 -0.71875 -0.78125 -1.78125q-0.25 -1.078125 -0.203125 -2.484375q0.046875 -1.4375 0.40625 -2.625q0.359375 -1.203125 1.015625 -2.078125q0.609375 -0.84375 1.4375 -1.296875q0.84375 -0.46875 1.890625 -0.46875q0.96875 0 1.703125 0.34375q0.75 0.328125 1.25 0.984375q0.5 0.65625 0.734375 1.640625q0.25 0.96875 0.203125 2.25q0 0.8125 -0.09375 1.5q-0.09375 0.6875 -0.28125 1.1875q-0.171875 0.5 -0.4375 0.78125q-0.25 0.28125 -0.5625 0.28125q-0.125 0 -0.25 -0.03125q-0.125 -0.03125 -0.203125 -0.140625q-0.09375 -0.109375 -0.140625 -0.3125q-0.03125 -0.21875 -0.015625 -0.578125l0.453125 -5.375q-0.296875 -0.34375 -0.796875 -0.59375q-0.484375 -0.265625 -1.25 -0.265625q-0.765625 0 -1.390625 0.34375q-0.625 0.34375 -1.09375 0.953125q-0.46875 0.625 -0.765625 1.515625q-0.296875 0.890625 -0.390625 2.0q-0.09375 0.859375 0.015625 1.578125q0.109375 0.71875 0.375 1.21875q0.265625 0.515625 0.6875 0.796875q0.4375 0.265625 1.015625 0.265625q0.328125 0 0.625 -0.09375q0.296875 -0.09375 0.5625 -0.28125q0.1875 -0.15625 0.359375 -0.328125q0.1875 -0.1875 0.328125 -0.40625q0.09375 0.234375 0.234375 0.421875q0.140625 0.1875 0.296875 0.328125q0.21875 0.1875 0.5 0.28125q0.28125 0.09375 0.625 0.09375q0.78125 0 1.328125 -0.453125q0.5625 -0.46875 0.921875 -1.21875q0.359375 -0.734375 0.53125 -1.65625q0.171875 -0.9375 0.203125 -1.84375zm-7.03125 1.296875q0.078125 -0.796875 0.234375 -1.40625q0.171875 -0.625 0.4375 -1.046875q0.25 -0.4375 0.625 -0.65625q0.375 -0.234375 0.875 -0.234375q0.140625 0 0.25 0.03125q0.109375 0.015625 0.1875 0.046875l-0.390625 4.59375l-0.015625 0.125q-0.09375 0.1875 -0.203125 0.328125q-0.109375 0.140625 -0.234375 0.25q-0.1875 0.171875 -0.40625 0.234375q-0.203125 0.0625 -0.4375 0.0625q-0.25 0 -0.4375 -0.140625q-0.1875 -0.15625 -0.3125 -0.46875q-0.109375 -0.296875 -0.15625 -0.734375q-0.046875 -0.4375 -0.015625 -0.984375z" fill-rule="nonzero"/><path fill="#eeeeee" d="m255.80058 56.903l31.527573 0l0 28.472443l-31.527573 0z" fill-rule="evenodd"/><path fill="#000000" d="m270.8055 69.44422l-2.8125 3.40625l1.71875 1.203125l2.203125 -3.734375l2.203125 3.84375l1.71875 -1.265625l-2.734375 -3.375l4.0625 -0.953125l-0.625 -2.03125l-3.828125 1.625l0.359375 -4.5l-2.109375 0l0.328125 4.4375l-3.859375 -1.65625l-0.625 2.0l4.0 1.0z" fill-rule="nonzero"/><path fill="#eeeeee" d="m123.83648 85.38092l0 0c0 -31.762897 25.748909 -57.511814 57.511818 -57.511814l0 0c15.253067 0 29.881424 6.0592613 40.666992 16.844818c10.785553 10.785557 16.844818 25.413914 16.844818 40.666996l0 0c0 31.762894 -25.748917 57.51181 -57.51181 57.51181l0 0c-31.762909 0 -57.511818 -25.748917 -57.511818 -57.51181z" fill-rule="evenodd"/><path stroke="#595959" stroke-width="3.0" stroke-linejoin="round" stroke-linecap="butt" d="m123.83648 85.38092l0 0c0 -31.762897 25.748909 -57.511814 57.511818 -57.511814l0 0c15.253067 0 29.881424 6.0592613 40.666992 16.844818c10.785553 10.785557 16.844818 25.413914 16.844818 40.666996l0 0c0 31.762894 -25.748917 57.51181 -57.51181 57.51181l0 0c-31.762909 0 -57.511818 -25.748917 -57.511818 -57.51181z" fill-rule="evenodd"/><path fill="#000000" fill-opacity="0.0" d="m123.83648 63.750477l115.02363 0l0 61.417324l-115.02363 0z" fill-rule="evenodd"/><path fill="#000000" d="m151.93578 90.1836q0 0.265625 -0.125 0.5q-0.125 0.21875 -0.359375 0.40625q-0.296875 0.21875 -0.78125 0.359375q-0.484375 0.140625 -1.125 0.140625q-0.484375 0 -0.953125 -0.09375q-0.46875 -0.109375 -0.828125 -0.34375q-0.375 -0.21875 -0.625 -0.578125q-0.234375 -0.359375 -0.265625 -0.875l-2.421875 0q0 0.703125 0.328125 1.375q0.34375 0.671875 0.984375 1.203125q0.640625 0.53125 1.578125 0.859375q0.9375 0.3125 2.15625 0.3125q1.09375 0 1.984375 -0.25q0.90625 -0.25 1.546875 -0.703125q0.640625 -0.4375 0.984375 -1.0625q0.34375 -0.625 0.34375 -1.375q0 -0.78125 -0.328125 -1.34375q-0.328125 -0.5625 -0.9375 -0.96875q-0.59375 -0.40625 -1.453125 -0.671875q-0.859375 -0.265625 -1.890625 -0.453125q-0.734375 -0.125 -1.21875 -0.28125q-0.484375 -0.15625 -0.75 -0.34375q-0.296875 -0.1875 -0.421875 -0.421875q-0.109375 -0.234375 -0.109375 -0.515625q0 -0.28125 0.140625 -0.53125q0.140625 -0.265625 0.40625 -0.453125q0.265625 -0.203125 0.6875 -0.328125q0.421875 -0.125 0.984375 -0.125q0.625 0 1.078125 0.171875q0.453125 0.15625 0.75 0.421875q0.25 0.234375 0.375 0.53125q0.140625 0.28125 0.140625 0.59375l2.484375 0q0 -0.765625 -0.34375 -1.421875q-0.328125 -0.65625 -0.9375 -1.140625q-0.625 -0.46875 -1.53125 -0.734375q-0.890625 -0.28125 -2.015625 -0.28125q-1.046875 0 -1.90625 0.265625q-0.859375 0.265625 -1.46875 0.734375q-0.609375 0.46875 -0.9375 1.09375q-0.328125 0.609375 -0.328125 1.296875q0 0.71875 0.3125 1.265625q0.328125 0.546875 0.90625 0.9375q0.578125 0.421875 1.390625 0.71875q0.8125 0.28125 1.78125 0.484375q0.78125 0.140625 1.296875 0.3125q0.53125 0.15625 0.859375 0.34375q0.296875 0.21875 0.421875 0.453125q0.140625 0.21875 0.140625 0.515625zm10.330215 1.25q-0.78125 0 -1.296875 -0.3125q-0.515625 -0.3125 -0.828125 -0.828125q-0.3125 -0.5 -0.4375 -1.15625q-0.125 -0.671875 -0.125 -1.359375l0 -0.359375q0 -0.671875 0.125 -1.328125q0.125 -0.65625 0.453125 -1.171875q0.296875 -0.515625 0.8125 -0.828125q0.515625 -0.3125 1.296875 -0.3125q0.515625 0 0.953125 0.171875q0.453125 0.171875 0.765625 0.484375q0.3125 0.296875 0.484375 0.703125q0.171875 0.40625 0.171875 0.859375l2.34375 0q0.015625 -0.9375 -0.34375 -1.71875q-0.34375 -0.78125 -0.96875 -1.34375q-0.625 -0.546875 -1.5 -0.859375q-0.859375 -0.3125 -1.875 -0.3125q-1.296875 0 -2.28125 0.453125q-0.96875 0.4375 -1.625 1.21875q-0.65625 0.765625 -0.984375 1.796875q-0.328125 1.03125 -0.328125 2.1875l0 0.359375q0 1.171875 0.328125 2.203125q0.34375 1.015625 1.0 1.796875q0.640625 0.765625 1.609375 1.21875q0.984375 0.453125 2.28125 0.453125q0.9375 0 1.78125 -0.296875q0.859375 -0.3125 1.515625 -0.859375q0.640625 -0.515625 1.015625 -1.234375q0.390625 -0.734375 0.375 -1.5625l-2.34375 0q0 0.4375 -0.1875 0.796875q-0.1875 0.34375 -0.515625 0.609375q-0.328125 0.25 -0.765625 0.390625q-0.4375 0.140625 -0.90625 0.140625zm15.09584 1.796875l2.53125 0l0 -0.171875q-0.203125 -0.4375 -0.3125 -1.046875q-0.109375 -0.609375 -0.109375 -1.375l0 -5.015625q0 -0.953125 -0.359375 -1.6875q-0.34375 -0.734375 -0.96875 -1.21875q-0.625 -0.46875 -1.484375 -0.703125q-0.859375 -0.25 -1.84375 -0.25q-1.109375 0 -1.96875 0.28125q-0.859375 0.28125 -1.4375 0.765625q-0.609375 0.484375 -0.921875 1.109375q-0.3125 0.625 -0.328125 1.296875l2.5 0q0 -0.3125 0.125 -0.59375q0.125 -0.296875 0.375 -0.5q0.25 -0.21875 0.625 -0.34375q0.375 -0.125 0.890625 -0.125q0.5625 0 0.984375 0.140625q0.4375 0.140625 0.75 0.40625q0.28125 0.265625 0.421875 0.625q0.15625 0.34375 0.15625 0.78125l0 0.765625l-1.8125 0q-1.21875 0 -2.1875 0.234375q-0.953125 0.21875 -1.609375 0.65625q-0.71875 0.46875 -1.09375 1.1875q-0.359375 0.703125 -0.359375 1.640625q0 0.71875 0.28125 1.34375q0.296875 0.609375 0.8125 1.046875q0.515625 0.453125 1.234375 0.703125q0.71875 0.25 1.59375 0.25q0.546875 0 1.015625 -0.109375q0.46875 -0.09375 0.875 -0.28125q0.40625 -0.171875 0.734375 -0.421875q0.328125 -0.25 0.59375 -0.515625q0.046875 0.328125 0.109375 0.625q0.078125 0.296875 0.1875 0.5zm-3.03125 -1.796875q-0.484375 0 -0.84375 -0.109375q-0.34375 -0.125 -0.578125 -0.328125q-0.25 -0.21875 -0.375 -0.515625q-0.125 -0.296875 -0.125 -0.640625q0 -0.40625 0.15625 -0.734375q0.15625 -0.34375 0.46875 -0.578125q0.34375 -0.28125 0.9375 -0.4375q0.59375 -0.15625 1.40625 -0.15625l1.609375 0l0 2.09375q-0.140625 0.265625 -0.390625 0.515625q-0.25 0.25 -0.59375 0.453125q-0.34375 0.1875 -0.765625 0.3125q-0.421875 0.125 -0.90625 0.125zm9.111465 -14.203125l0 2.078125l3.5625 0l0 11.859375l-3.5625 0l0 2.0625l9.484375 0l0 -2.0625l-3.40625 0l0 -13.9375l-6.078125 0zm19.517715 16.0l2.53125 0l0 -0.171875q-0.203125 -0.4375 -0.3125 -1.046875q-0.109375 -0.609375 -0.109375 -1.375l0 -5.015625q0 -0.953125 -0.359375 -1.6875q-0.34375 -0.734375 -0.96875 -1.21875q-0.625 -0.46875 -1.484375 -0.703125q-0.859375 -0.25 -1.84375 -0.25q-1.109375 0 -1.96875 0.28125q-0.859375 0.28125 -1.4375 0.765625q-0.609375 0.484375 -0.921875 1.109375q-0.3125 0.625 -0.328125 1.296875l2.5 0q0 -0.3125 0.125 -0.59375q0.125 -0.296875 0.375 -0.5q0.25 -0.21875 0.625 -0.34375q0.375 -0.125 0.890625 -0.125q0.5625 0 0.984375 0.140625q0.4375 0.140625 0.75 0.40625q0.28125 0.265625 0.421875 0.625q0.15625 0.34375 0.15625 0.78125l0 0.765625l-1.8125 0q-1.21875 0 -2.1875 0.234375q-0.953125 0.21875 -1.609375 0.65625q-0.71875 0.46875 -1.09375 1.1875q-0.359375 0.703125 -0.359375 1.640625q0 0.71875 0.28125 1.34375q0.296875 0.609375 0.8125 1.046875q0.515625 0.453125 1.234375 0.703125q0.71875 0.25 1.59375 0.25q0.546875 0 1.015625 -0.109375q0.46875 -0.09375 0.875 -0.28125q0.40625 -0.171875 0.734375 -0.421875q0.328125 -0.25 0.59375 -0.515625q0.046875 0.328125 0.109375 0.625q0.078125 0.296875 0.1875 0.5zm-3.03125 -1.796875q-0.484375 0 -0.84375 -0.109375q-0.34375 -0.125 -0.578125 -0.328125q-0.25 -0.21875 -0.375 -0.515625q-0.125 -0.296875 -0.125 -0.640625q0 -0.40625 0.15625 -0.734375q0.15625 -0.34375 0.46875 -0.578125q0.34375 -0.28125 0.9375 -0.4375q0.59375 -0.15625 1.40625 -0.15625l1.609375 0l0 2.09375q-0.140625 0.265625 -0.390625 0.515625q-0.25 0.25 -0.59375 0.453125q-0.34375 0.1875 -0.765625 0.3125q-0.421875 0.125 -0.90625 0.125zm16.423965 -9.671875q-1.171875 0 -2.140625 0.546875q-0.953125 0.53125 -1.640625 1.46875l-0.015625 -0.25l-0.09375 -1.5625l-2.34375 0l0 11.265625l2.5 0l0 -6.953125q0.1875 -0.5 0.484375 -0.890625q0.296875 -0.390625 0.703125 -0.640625q0.390625 -0.25 0.890625 -0.375q0.5 -0.125 1.125 -0.125q0.546875 0 1.109375 0.0625q0.5625 0.0625 1.125 0.1875l0.359375 -2.453125q-0.328125 -0.125 -0.890625 -0.203125q-0.5625 -0.078125 -1.171875 -0.078125z" fill-rule="nonzero"/><path fill="#000000" d="m151.63681 107.2911l0 0.125q0 0.921875 0.140625 1.734375q0.140625 0.8125 0.390625 1.5q0.234375 0.6875 0.546875 1.25q0.328125 0.578125 0.6875 1.03125q0.359375 0.4375 0.71875 0.75q0.375 0.3125 0.734375 0.46875l0.3125 -0.859375q-0.265625 -0.203125 -0.53125 -0.515625q-0.25 -0.296875 -0.5 -0.6875q-0.21875 -0.375 -0.4375 -0.875q-0.203125 -0.5 -0.359375 -1.09375q-0.125 -0.484375 -0.21875 -1.1875q-0.078125 -0.703125 -0.078125 -1.515625l0 -0.125q0 -0.84375 0.09375 -1.546875q0.09375 -0.71875 0.25 -1.3125q0.171875 -0.640625 0.421875 -1.171875q0.25 -0.53125 0.53125 -0.921875q0.203125 -0.28125 0.40625 -0.5q0.203125 -0.234375 0.421875 -0.390625l-0.3125 -0.890625q-0.359375 0.15625 -0.734375 0.46875q-0.359375 0.3125 -0.71875 0.75q-0.34375 0.453125 -0.671875 1.03125q-0.328125 0.5625 -0.5625 1.25q-0.25 0.6875 -0.390625 1.515625q-0.140625 0.8125 -0.140625 1.71875zm8.373184 -1.578125l0 1.21875l0.921875 0q0.40625 0 0.734375 0.09375q0.328125 0.09375 0.5625 0.28125q0.234375 0.203125 0.359375 0.5q0.125 0.28125 0.125 0.6875q0 0.375 -0.109375 0.65625q-0.109375 0.28125 -0.296875 0.46875q-0.21875 0.203125 -0.53125 0.3125q-0.296875 0.09375 -0.671875 0.09375q-0.34375 0 -0.640625 -0.09375q-0.28125 -0.109375 -0.5 -0.296875q-0.203125 -0.1875 -0.328125 -0.453125q-0.109375 -0.265625 -0.109375 -0.578125l-1.546875 0q0 0.671875 0.25 1.171875q0.25 0.484375 0.6875 0.828125q0.421875 0.34375 0.984375 0.515625q0.578125 0.15625 1.1875 0.15625q0.671875 0 1.25 -0.171875q0.59375 -0.1875 1.015625 -0.546875q0.4375 -0.359375 0.671875 -0.875q0.25 -0.515625 0.25 -1.1875q0 -0.34375 -0.09375 -0.671875q-0.078125 -0.34375 -0.265625 -0.640625q-0.1875 -0.28125 -0.484375 -0.515625q-0.296875 -0.234375 -0.71875 -0.375q0.359375 -0.171875 0.625 -0.40625q0.265625 -0.234375 0.4375 -0.5q0.171875 -0.265625 0.265625 -0.5625q0.09375 -0.296875 0.09375 -0.578125q0 -0.671875 -0.234375 -1.171875q-0.21875 -0.5 -0.625 -0.84375q-0.390625 -0.34375 -0.953125 -0.515625q-0.5625 -0.171875 -1.234375 -0.171875q-0.65625 0 -1.203125 0.203125q-0.546875 0.1875 -0.953125 0.53125q-0.40625 0.359375 -0.640625 0.84375q-0.21875 0.46875 -0.21875 1.03125l1.546875 0q0 -0.3125 0.109375 -0.546875q0.125 -0.25 0.328125 -0.4375q0.1875 -0.171875 0.453125 -0.265625q0.28125 -0.09375 0.59375 -0.09375q0.359375 0 0.640625 0.109375q0.28125 0.09375 0.453125 0.265625q0.1875 0.1875 0.28125 0.453125q0.09375 0.265625 0.09375 0.609375q0 0.3125 -0.109375 0.578125q-0.09375 0.265625 -0.28125 0.453125q-0.203125 0.203125 -0.515625 0.328125q-0.3125 0.109375 -0.734375 0.109375l-0.921875 0zm12.388809 5.4375l0 -1.25l-4.421875 0l2.109375 -2.25q0.421875 -0.453125 0.765625 -0.859375q0.359375 -0.421875 0.625 -0.828125q0.25 -0.421875 0.390625 -0.828125q0.15625 -0.421875 0.15625 -0.875q0 -0.59375 -0.203125 -1.09375q-0.1875 -0.5 -0.5625 -0.859375q-0.375 -0.359375 -0.921875 -0.5625q-0.546875 -0.203125 -1.25 -0.203125q-0.734375 0 -1.34375 0.25q-0.59375 0.234375 -1.015625 0.640625q-0.421875 0.421875 -0.65625 0.96875q-0.21875 0.546875 -0.21875 1.15625l1.5625 0q0 -0.40625 0.09375 -0.71875q0.109375 -0.328125 0.3125 -0.5625q0.203125 -0.203125 0.5 -0.3125q0.3125 -0.125 0.734375 -0.125q0.328125 0 0.59375 0.109375q0.265625 0.109375 0.453125 0.296875q0.1875 0.203125 0.28125 0.484375q0.09375 0.265625 0.09375 0.59375q0 0.25 -0.078125 0.5q-0.0625 0.234375 -0.21875 0.515625q-0.15625 0.28125 -0.421875 0.625q-0.25 0.328125 -0.640625 0.75l-3.078125 3.359375l0 1.078125l6.359375 0zm7.841934 -3.53125l0 -1.265625l-5.234375 0l0 1.265625l5.234375 0zm8.310684 0.078125l0 -0.125q0 -0.609375 -0.109375 -1.140625q-0.109375 -0.53125 -0.3125 -0.96875q-0.15625 -0.3125 -0.375 -0.578125q-0.203125 -0.265625 -0.453125 -0.4375q-0.3125 -0.234375 -0.703125 -0.34375q-0.375 -0.125 -0.828125 -0.125q-0.34375 0 -0.640625 0.078125q-0.296875 0.0625 -0.546875 0.203125q-0.1875 0.09375 -0.34375 0.234375q-0.15625 0.140625 -0.296875 0.296875l0 -3.640625l-1.5625 0l0 10.0l1.40625 0l0.078125 -0.765625q0.109375 0.140625 0.234375 0.265625q0.140625 0.109375 0.28125 0.21875q0.28125 0.203125 0.625 0.296875q0.359375 0.109375 0.78125 0.109375q0.421875 0 0.78125 -0.109375q0.359375 -0.09375 0.65625 -0.296875q0.359375 -0.234375 0.625 -0.59375q0.265625 -0.375 0.421875 -0.828125q0.125 -0.375 0.203125 -0.8125q0.078125 -0.453125 0.078125 -0.9375zm-1.5625 -0.125l0 0.125q0 0.296875 -0.03125 0.578125q-0.03125 0.265625 -0.09375 0.5q-0.078125 0.3125 -0.234375 0.5625q-0.140625 0.25 -0.375 0.40625q-0.15625 0.125 -0.375 0.203125q-0.21875 0.0625 -0.484375 0.0625q-0.296875 0 -0.53125 -0.078125q-0.234375 -0.078125 -0.421875 -0.203125q-0.15625 -0.125 -0.28125 -0.28125q-0.125 -0.171875 -0.21875 -0.359375l0 -2.921875q0.078125 -0.15625 0.1875 -0.296875q0.109375 -0.15625 0.234375 -0.265625q0.1875 -0.171875 0.4375 -0.25q0.265625 -0.09375 0.578125 -0.09375q0.265625 0 0.46875 0.0625q0.21875 0.0625 0.375 0.171875q0.25 0.171875 0.390625 0.421875q0.15625 0.234375 0.234375 0.53125q0.078125 0.25 0.109375 0.53125q0.03125 0.28125 0.03125 0.59375zm3.7169342 -3.46875l0 1.296875l2.171875 0l0 4.46875l-2.171875 0l0 1.28125l5.8125 0l0 -1.28125l-2.0625 0l0 -5.765625l-3.75 0zm2.03125 -1.8125q0 0.25 0.109375 0.4375q0.125 0.171875 0.359375 0.25q0.234375 0.0625 0.421875 0.03125q0.1875 -0.046875 0.328125 -0.15625q0.265625 -0.078125 0.40625 -0.28125q0.15625 -0.21875 0.109375 -0.5q-0.03125 -0.28125 -0.25 -0.453125q-0.21875 -0.1875 -0.578125 -0.1875q-0.203125 0 -0.375 0.0625q-0.15625 0.0625 -0.28125 0.171875q-0.125 0.109375 -0.1875 0.28125q-0.0625 0.15625 -0.0625 0.34375zm8.732559 0.09375l-1.546875 0l0 1.71875l-1.71875 0l0 1.171875l1.71875 0l0 3.453125q0 0.6875 0.171875 1.171875q0.171875 0.46875 0.5 0.78125q0.3125 0.3125 0.75 0.46875q0.453125 0.140625 0.984375 0.140625q0.296875 0 0.59375 -0.03125q0.296875 -0.03125 0.578125 -0.078125q0.265625 -0.0625 0.5 -0.125q0.234375 -0.078125 0.40625 -0.1875l-0.171875 -1.078125q-0.109375 0.03125 -0.28125 0.078125q-0.171875 0.03125 -0.375 0.046875q-0.1875 0.03125 -0.40625 0.0625q-0.21875 0.015625 -0.421875 0.015625q-0.28125 0 -0.515625 -0.0625q-0.234375 -0.0625 -0.40625 -0.21875q-0.15625 -0.15625 -0.265625 -0.421875q-0.09375 -0.265625 -0.09375 -0.65625l0 -3.359375l2.65625 0l0 -1.171875l-2.65625 0l0 -1.71875zm9.529434 5.03125l0 -0.125q0 -0.921875 -0.15625 -1.71875q-0.15625 -0.796875 -0.390625 -1.484375q-0.234375 -0.703125 -0.5625 -1.265625q-0.328125 -0.578125 -0.703125 -1.03125q-0.359375 -0.4375 -0.734375 -0.75q-0.375 -0.328125 -0.734375 -0.484375l-0.3125 0.859375q0.203125 0.15625 0.40625 0.390625q0.21875 0.234375 0.421875 0.53125q0.28125 0.40625 0.53125 0.96875q0.265625 0.5625 0.4375 1.25q0.140625 0.546875 0.234375 1.234375q0.09375 0.6875 0.09375 1.5l0 0.125q0 0.796875 -0.09375 1.46875q-0.078125 0.671875 -0.21875 1.25q-0.140625 0.625 -0.359375 1.125q-0.21875 0.515625 -0.46875 0.921875q-0.234375 0.359375 -0.484375 0.640625q-0.25 0.28125 -0.5 0.46875l0.3125 0.859375q0.359375 -0.15625 0.734375 -0.46875q0.375 -0.3125 0.734375 -0.78125q0.359375 -0.4375 0.6875 -1.015625q0.328125 -0.5625 0.578125 -1.265625q0.25 -0.6875 0.390625 -1.484375q0.15625 -0.8125 0.15625 -1.71875z" fill-rule="nonzero"/><path fill="#eeeeee" d="m321.15018 85.38092l0 0c0 -31.762897 25.748932 -57.511814 57.51181 -57.511814l0 0c15.253082 0 29.88144 6.0592613 40.666992 16.844818c10.785553 10.785557 16.844818 25.413914 16.844818 40.666996l0 0c0 31.762894 -25.748901 57.51181 -57.51181 57.51181l0 0c-31.762878 0 -57.51181 -25.748917 -57.51181 -57.51181z" fill-rule="evenodd"/><path stroke="#595959" stroke-width="3.0" stroke-linejoin="round" stroke-linecap="butt" d="m321.15018 85.38092l0 0c0 -31.762897 25.748932 -57.511814 57.51181 -57.511814l0 0c15.253082 0 29.88144 6.0592613 40.666992 16.844818c10.785553 10.785557 16.844818 25.413914 16.844818 40.666996l0 0c0 31.762894 -25.748901 57.51181 -57.51181 57.51181l0 0c-31.762878 0 -57.51181 -25.748917 -57.51181 -57.51181z" fill-rule="evenodd"/><path fill="#000000" fill-opacity="0.0" d="m321.15018 62.93854l115.02362 0l0 61.417324l-115.02362 0z" fill-rule="evenodd"/><path fill="#000000" d="m348.3052 96.746666l2.484375 0l0 -5.34375q0.203125 0.21875 0.421875 0.40625q0.234375 0.1875 0.484375 0.328125q0.421875 0.234375 0.921875 0.359375q0.515625 0.125 1.125 0.125q1.0625 0 1.875 -0.4375q0.828125 -0.4375 1.390625 -1.203125q0.5625 -0.765625 0.84375 -1.8125q0.28125 -1.046875 0.28125 -2.265625l0 -0.21875q0 -1.28125 -0.296875 -2.328125q-0.28125 -1.0625 -0.828125 -1.828125q-0.5625 -0.75 -1.390625 -1.15625q-0.828125 -0.421875 -1.90625 -0.421875q-0.5625 0 -1.046875 0.125q-0.484375 0.109375 -0.890625 0.328125q-0.3125 0.171875 -0.59375 0.40625q-0.265625 0.21875 -0.5 0.5l-0.09375 -1.15625l-2.28125 0l0 15.59375zm7.34375 -10.0625l0 0.21875q0 0.75 -0.140625 1.421875q-0.140625 0.671875 -0.46875 1.1875q-0.3125 0.515625 -0.8125 0.8125q-0.484375 0.296875 -1.1875 0.296875q-0.421875 0 -0.78125 -0.09375q-0.359375 -0.109375 -0.640625 -0.28125q-0.265625 -0.171875 -0.484375 -0.40625q-0.203125 -0.25 -0.34375 -0.53125l0 -5.015625q0.171875 -0.3125 0.390625 -0.5625q0.21875 -0.25 0.53125 -0.421875q0.25 -0.15625 0.578125 -0.234375q0.34375 -0.078125 0.734375 -0.078125q0.6875 0 1.1875 0.296875q0.5 0.28125 0.828125 0.78125q0.3125 0.5 0.453125 1.171875q0.15625 0.671875 0.15625 1.4375zm4.970825 0l0 0.21875q0 1.234375 0.34375 2.28125q0.359375 1.03125 1.046875 1.8125q0.65625 0.765625 1.640625 1.203125q0.984375 0.4375 2.21875 0.4375q1.234375 0 2.203125 -0.4375q0.96875 -0.4375 1.640625 -1.203125q0.65625 -0.78125 1.015625 -1.8125q0.359375 -1.046875 0.359375 -2.28125l0 -0.21875q0 -1.234375 -0.359375 -2.28125q-0.359375 -1.046875 -1.015625 -1.8125q-0.671875 -0.78125 -1.65625 -1.203125q-0.96875 -0.4375 -2.203125 -0.4375q-1.25 0 -2.21875 0.4375q-0.96875 0.421875 -1.625 1.203125q-0.6875 0.765625 -1.046875 1.8125q-0.34375 1.046875 -0.34375 2.28125zm2.484375 0.21875l0 -0.21875q0 -0.75 0.15625 -1.421875q0.171875 -0.671875 0.515625 -1.1875q0.328125 -0.515625 0.84375 -0.8125q0.515625 -0.296875 1.234375 -0.296875q0.71875 0 1.234375 0.296875q0.515625 0.296875 0.859375 0.8125q0.3125 0.515625 0.484375 1.1875q0.171875 0.671875 0.171875 1.421875l0 0.21875q0 0.75 -0.171875 1.4375q-0.15625 0.671875 -0.484375 1.1875q-0.34375 0.5 -0.859375 0.796875q-0.515625 0.296875 -1.21875 0.296875q-0.71875 0 -1.25 -0.296875q-0.515625 -0.296875 -0.84375 -0.796875q-0.34375 -0.515625 -0.515625 -1.1875q-0.15625 -0.6875 -0.15625 -1.4375zm11.345856 -5.75l0 2.0625l3.46875 0l0 7.140625l-3.46875 0l0 2.0625l9.28125 0l0 -2.0625l-3.296875 0l0 -9.203125l-5.984375 0zm3.234375 -2.921875q0 0.40625 0.1875 0.703125q0.203125 0.296875 0.578125 0.40625q0.359375 0.109375 0.65625 0.046875q0.3125 -0.0625 0.53125 -0.25q0.4375 -0.125 0.65625 -0.453125q0.234375 -0.34375 0.171875 -0.796875q-0.0625 -0.453125 -0.40625 -0.734375q-0.34375 -0.296875 -0.90625 -0.296875q-0.34375 0 -0.609375 0.109375q-0.265625 0.09375 -0.453125 0.265625q-0.1875 0.1875 -0.296875 0.453125q-0.109375 0.25 -0.109375 0.546875zm8.98645 14.1875l2.5 0l0 -8.046875q0.15625 -0.28125 0.375 -0.515625q0.21875 -0.234375 0.46875 -0.40625q0.328125 -0.21875 0.71875 -0.328125q0.40625 -0.125 0.859375 -0.125q0.546875 0 0.96875 0.125q0.4375 0.109375 0.734375 0.390625q0.3125 0.28125 0.46875 0.75q0.15625 0.46875 0.15625 1.171875l0 6.984375l2.484375 0l0 -7.03125q0 -1.1875 -0.28125 -2.015625q-0.28125 -0.84375 -0.796875 -1.390625q-0.5 -0.53125 -1.21875 -0.78125q-0.71875 -0.25 -1.59375 -0.25q-0.65625 0 -1.25 0.1875q-0.59375 0.1875 -1.09375 0.53125q-0.3125 0.203125 -0.59375 0.484375q-0.265625 0.28125 -0.5 0.59375l-0.15625 -1.59375l-2.25 0l0 11.265625zm17.79898 -14.015625l-2.5 0l0 2.75l-2.71875 0l0 1.859375l2.71875 0l0 5.546875q0 1.078125 0.28125 1.859375q0.296875 0.765625 0.8125 1.25q0.5 0.5 1.21875 0.734375q0.71875 0.234375 1.5625 0.234375q0.46875 0 0.9375 -0.046875q0.484375 -0.046875 0.921875 -0.125q0.4375 -0.09375 0.8125 -0.203125q0.375 -0.125 0.65625 -0.296875l-0.28125 -1.71875q-0.1875 0.046875 -0.46875 0.109375q-0.265625 0.046875 -0.578125 0.09375q-0.3125 0.046875 -0.65625 0.078125q-0.34375 0.03125 -0.671875 0.03125q-0.453125 0 -0.828125 -0.09375q-0.375 -0.109375 -0.640625 -0.359375q-0.265625 -0.234375 -0.421875 -0.65625q-0.15625 -0.421875 -0.15625 -1.046875l0 -5.390625l4.234375 0l0 -1.859375l-4.234375 0l0 -2.75z" fill-rule="nonzero"/><path fill="#000000" d="m348.9505 106.479164l0 0.125q0 0.921875 0.140625 1.734375q0.140625 0.8125 0.390625 1.5q0.234375 0.6875 0.546875 1.25q0.328125 0.578125 0.6875 1.03125q0.359375 0.4375 0.71875 0.75q0.375 0.3125 0.734375 0.46875l0.3125 -0.859375q-0.265625 -0.203125 -0.53125 -0.515625q-0.25 -0.296875 -0.5 -0.6875q-0.21875 -0.375 -0.4375 -0.875q-0.203125 -0.5 -0.359375 -1.09375q-0.125 -0.484375 -0.21875 -1.1875q-0.078125 -0.703125 -0.078125 -1.515625l0 -0.125q0 -0.84375 0.09375 -1.546875q0.09375 -0.71875 0.25 -1.3125q0.171875 -0.640625 0.421875 -1.171875q0.25 -0.53125 0.53125 -0.921875q0.203125 -0.28125 0.40625 -0.5q0.203125 -0.234375 0.421875 -0.390625l-0.3125 -0.890625q-0.359375 0.15625 -0.734375 0.46875q-0.359375 0.3125 -0.71875 0.75q-0.34375 0.453125 -0.671875 1.03125q-0.328125 0.5625 -0.5625 1.25q-0.25 0.6875 -0.390625 1.515625q-0.140625 0.8125 -0.140625 1.71875zm8.373199 -1.578125l0 1.21875l0.921875 0q0.40625 0 0.734375 0.09375q0.328125 0.09375 0.5625 0.28125q0.234375 0.203125 0.359375 0.5q0.125 0.28125 0.125 0.6875q0 0.375 -0.109375 0.65625q-0.109375 0.28125 -0.296875 0.46875q-0.21875 0.203125 -0.53125 0.3125q-0.296875 0.09375 -0.671875 0.09375q-0.34375 0 -0.640625 -0.09375q-0.28125 -0.109375 -0.5 -0.296875q-0.203125 -0.1875 -0.328125 -0.453125q-0.109375 -0.265625 -0.109375 -0.578125l-1.546875 0q0 0.671875 0.25 1.171875q0.25 0.484375 0.6875 0.828125q0.421875 0.34375 0.984375 0.515625q0.578125 0.15625 1.1875 0.15625q0.671875 0 1.25 -0.171875q0.59375 -0.1875 1.015625 -0.546875q0.4375 -0.359375 0.671875 -0.875q0.25 -0.515625 0.25 -1.1875q0 -0.34375 -0.09375 -0.671875q-0.078125 -0.34375 -0.265625 -0.640625q-0.1875 -0.28125 -0.484375 -0.515625q-0.296875 -0.234375 -0.71875 -0.375q0.359375 -0.171875 0.625 -0.40625q0.265625 -0.234375 0.4375 -0.5q0.171875 -0.265625 0.265625 -0.5625q0.09375 -0.296875 0.09375 -0.578125q0 -0.671875 -0.234375 -1.171875q-0.21875 -0.5 -0.625 -0.84375q-0.390625 -0.34375 -0.953125 -0.515625q-0.5625 -0.171875 -1.234375 -0.171875q-0.65625 0 -1.203125 0.203125q-0.546875 0.1875 -0.953125 0.53125q-0.40625 0.359375 -0.640625 0.84375q-0.21875 0.46875 -0.21875 1.03125l1.546875 0q0 -0.3125 0.109375 -0.546875q0.125 -0.25 0.328125 -0.4375q0.1875 -0.171875 0.453125 -0.265625q0.28125 -0.09375 0.59375 -0.09375q0.359375 0 0.640625 0.109375q0.28125 0.09375 0.453125 0.265625q0.1875 0.1875 0.28125 0.453125q0.09375 0.265625 0.09375 0.609375q0 0.3125 -0.109375 0.578125q-0.09375 0.265625 -0.28125 0.453125q-0.203125 0.203125 -0.515625 0.328125q-0.3125 0.109375 -0.734375 0.109375l-0.921875 0zm12.388794 5.4375l0 -1.25l-4.421875 0l2.109375 -2.25q0.421875 -0.453125 0.765625 -0.859375q0.359375 -0.421875 0.625 -0.828125q0.25 -0.421875 0.390625 -0.828125q0.15625 -0.421875 0.15625 -0.875q0 -0.59375 -0.203125 -1.09375q-0.1875 -0.5 -0.5625 -0.859375q-0.375 -0.359375 -0.921875 -0.5625q-0.546875 -0.203125 -1.25 -0.203125q-0.734375 0 -1.34375 0.25q-0.59375 0.234375 -1.015625 0.640625q-0.421875 0.421875 -0.65625 0.96875q-0.21875 0.546875 -0.21875 1.15625l1.5625 0q0 -0.40625 0.09375 -0.71875q0.109375 -0.328125 0.3125 -0.5625q0.203125 -0.203125 0.5 -0.3125q0.3125 -0.125 0.734375 -0.125q0.328125 0 0.59375 0.109375q0.265625 0.109375 0.453125 0.296875q0.1875 0.203125 0.28125 0.484375q0.09375 0.265625 0.09375 0.59375q0 0.25 -0.078125 0.5q-0.0625 0.234375 -0.21875 0.515625q-0.15625 0.28125 -0.421875 0.625q-0.25 0.328125 -0.640625 0.75l-3.078125 3.359375l0 1.078125l6.359375 0zm7.8419495 -3.53125l0 -1.265625l-5.234375 0l0 1.265625l5.234375 0zm8.310669 0.078125l0 -0.125q0 -0.609375 -0.109375 -1.140625q-0.109375 -0.53125 -0.3125 -0.96875q-0.15625 -0.3125 -0.375 -0.578125q-0.203125 -0.265625 -0.453125 -0.4375q-0.3125 -0.234375 -0.703125 -0.34375q-0.375 -0.125 -0.828125 -0.125q-0.34375 0 -0.640625 0.078125q-0.296875 0.0625 -0.546875 0.203125q-0.1875 0.09375 -0.34375 0.234375q-0.15625 0.140625 -0.296875 0.296875l0 -3.640625l-1.5625 0l0 10.0l1.40625 0l0.078125 -0.765625q0.109375 0.140625 0.234375 0.265625q0.140625 0.109375 0.28125 0.21875q0.28125 0.203125 0.625 0.296875q0.359375 0.109375 0.78125 0.109375q0.421875 0 0.78125 -0.109375q0.359375 -0.09375 0.65625 -0.296875q0.359375 -0.234375 0.625 -0.59375q0.265625 -0.375 0.421875 -0.828125q0.125 -0.375 0.203125 -0.8125q0.078125 -0.453125 0.078125 -0.9375zm-1.5625 -0.125l0 0.125q0 0.296875 -0.03125 0.578125q-0.03125 0.265625 -0.09375 0.5q-0.078125 0.3125 -0.234375 0.5625q-0.140625 0.25 -0.375 0.40625q-0.15625 0.125 -0.375 0.203125q-0.21875 0.0625 -0.484375 0.0625q-0.296875 0 -0.53125 -0.078125q-0.234375 -0.078125 -0.421875 -0.203125q-0.15625 -0.125 -0.28125 -0.28125q-0.125 -0.171875 -0.21875 -0.359375l0 -2.921875q0.078125 -0.15625 0.1875 -0.296875q0.109375 -0.15625 0.234375 -0.265625q0.1875 -0.171875 0.4375 -0.25q0.265625 -0.09375 0.578125 -0.09375q0.265625 0 0.46875 0.0625q0.21875 0.0625 0.375 0.171875q0.25 0.171875 0.390625 0.421875q0.15625 0.234375 0.234375 0.53125q0.078125 0.25 0.109375 0.53125q0.03125 0.28125 0.03125 0.59375zm3.7169495 -3.46875l0 1.296875l2.171875 0l0 4.46875l-2.171875 0l0 1.28125l5.8125 0l0 -1.28125l-2.0625 0l0 -5.765625l-3.75 0zm2.03125 -1.8125q0 0.25 0.109375 0.4375q0.125 0.171875 0.359375 0.25q0.234375 0.0625 0.421875 0.03125q0.1875 -0.046875 0.328125 -0.15625q0.265625 -0.078125 0.40625 -0.28125q0.15625 -0.21875 0.109375 -0.5q-0.03125 -0.28125 -0.25 -0.453125q-0.21875 -0.1875 -0.578125 -0.1875q-0.203125 0 -0.375 0.0625q-0.15625 0.0625 -0.28125 0.171875q-0.125 0.109375 -0.1875 0.28125q-0.0625 0.15625 -0.0625 0.34375zm8.732544 0.09375l-1.546875 0l0 1.71875l-1.71875 0l0 1.171875l1.71875 0l0 3.453125q0 0.6875 0.171875 1.171875q0.171875 0.46875 0.5 0.78125q0.3125 0.3125 0.75 0.46875q0.453125 0.140625 0.984375 0.140625q0.296875 0 0.59375 -0.03125q0.296875 -0.03125 0.578125 -0.078125q0.265625 -0.0625 0.5 -0.125q0.234375 -0.078125 0.40625 -0.1875l-0.171875 -1.078125q-0.109375 0.03125 -0.28125 0.078125q-0.171875 0.03125 -0.375 0.046875q-0.1875 0.03125 -0.40625 0.0625q-0.21875 0.015625 -0.421875 0.015625q-0.28125 0 -0.515625 -0.0625q-0.234375 -0.0625 -0.40625 -0.21875q-0.15625 -0.15625 -0.265625 -0.421875q-0.09375 -0.265625 -0.09375 -0.65625l0 -3.359375l2.65625 0l0 -1.171875l-2.65625 0l0 -1.71875zm9.529449 5.03125l0 -0.125q0 -0.921875 -0.15625 -1.71875q-0.15625 -0.796875 -0.390625 -1.484375q-0.234375 -0.703125 -0.5625 -1.265625q-0.328125 -0.578125 -0.703125 -1.03125q-0.359375 -0.4375 -0.734375 -0.75q-0.375 -0.328125 -0.734375 -0.484375l-0.3125 0.859375q0.203125 0.15625 0.40625 0.390625q0.21875 0.234375 0.421875 0.53125q0.28125 0.40625 0.53125 0.96875q0.265625 0.5625 0.4375 1.25q0.140625 0.546875 0.234375 1.234375q0.09375 0.6875 0.09375 1.5l0 0.125q0 0.796875 -0.09375 1.46875q-0.078125 0.671875 -0.21875 1.25q-0.140625 0.625 -0.359375 1.125q-0.21875 0.515625 -0.46875 0.921875q-0.234375 0.359375 -0.484375 0.640625q-0.25 0.28125 -0.5 0.46875l0.3125 0.859375q0.359375 -0.15625 0.734375 -0.46875q0.375 -0.3125 0.734375 -0.78125q0.359375 -0.4375 0.6875 -1.015625q0.328125 -0.5625 0.578125 -1.265625q0.25 -0.6875 0.390625 -1.484375q0.15625 -0.8125 0.15625 -1.71875z" fill-rule="nonzero"/><path fill="#eeeeee" d="m526.0563 203.33899l0 0c0 -110.12645 89.27515 -199.40158 199.40161 -199.40158l0 0c52.884583 0 103.60315 21.00832 140.99817 58.40337c37.39508 37.395046 58.40338 88.11362 58.40338 140.9982l0 0c0 110.126465 -89.27515 199.40158 -199.40155 199.40158l0 0c-110.126465 0 -199.40161 -89.275116 -199.40161 -199.40158z" fill-rule="evenodd"/><path stroke="#595959" stroke-width="3.0" stroke-linejoin="round" stroke-linecap="butt" d="m526.0563 203.33899l0 0c0 -110.12645 89.27515 -199.40158 199.40161 -199.40158l0 0c52.884583 0 103.60315 21.00832 140.99817 58.40337c37.39508 37.395046 58.40338 88.11362 58.40338 140.9982l0 0c0 110.126465 -89.27515 199.40158 -199.40155 199.40158l0 0c-110.126465 0 -199.40161 -89.275116 -199.40161 -199.40158z" fill-rule="evenodd"/><path fill="#000000" fill-opacity="0.0" d="m526.0563 177.70755l398.80316 0l0 51.27559l-398.80316 0z" fill-rule="evenodd"/><path fill="#000000" d="m690.7149 209.26067q0 0.265625 -0.125 0.5q-0.125 0.21875 -0.359375 0.40625q-0.296875 0.21875 -0.78125 0.359375q-0.484375 0.140625 -1.125 0.140625q-0.484375 0 -0.953125 -0.09375q-0.46875 -0.109375 -0.828125 -0.34375q-0.375 -0.21875 -0.625 -0.578125q-0.234375 -0.359375 -0.265625 -0.875l-2.421875 0q0 0.703125 0.328125 1.375q0.34375 0.671875 0.984375 1.203125q0.640625 0.53125 1.578125 0.859375q0.9375 0.3125 2.15625 0.3125q1.09375 0 1.984375 -0.25q0.90625 -0.25 1.546875 -0.703125q0.640625 -0.4375 0.984375 -1.0625q0.34375 -0.625 0.34375 -1.375q0 -0.78125 -0.328125 -1.34375q-0.328125 -0.5625 -0.9375 -0.96875q-0.59375 -0.40625 -1.453125 -0.671875q-0.859375 -0.265625 -1.890625 -0.453125q-0.734375 -0.125 -1.21875 -0.28125q-0.484375 -0.15625 -0.75 -0.34375q-0.296875 -0.1875 -0.421875 -0.421875q-0.109375 -0.234375 -0.109375 -0.515625q0 -0.28125 0.140625 -0.53125q0.140625 -0.265625 0.40625 -0.453125q0.265625 -0.203125 0.6875 -0.328125q0.421875 -0.125 0.984375 -0.125q0.625 0 1.078125 0.171875q0.453125 0.15625 0.75 0.421875q0.25 0.234375 0.375 0.53125q0.140625 0.28125 0.140625 0.59375l2.484375 0q0 -0.765625 -0.34375 -1.421875q-0.328125 -0.65625 -0.9375 -1.140625q-0.625 -0.46875 -1.53125 -0.734375q-0.890625 -0.28125 -2.015625 -0.28125q-1.046875 0 -1.90625 0.265625q-0.859375 0.265625 -1.46875 0.734375q-0.609375 0.46875 -0.9375 1.09375q-0.328125 0.609375 -0.328125 1.296875q0 0.71875 0.3125 1.265625q0.328125 0.546875 0.90625 0.9375q0.578125 0.421875 1.390625 0.71875q0.8125 0.28125 1.78125 0.484375q0.78125 0.140625 1.296875 0.3125q0.53125 0.15625 0.859375 0.34375q0.296875 0.21875 0.421875 0.453125q0.140625 0.21875 0.140625 0.515625zm10.3302 1.25q-0.78125 0 -1.296875 -0.3125q-0.515625 -0.3125 -0.828125 -0.828125q-0.3125 -0.5 -0.4375 -1.15625q-0.125 -0.671875 -0.125 -1.359375l0 -0.359375q0 -0.671875 0.125 -1.328125q0.125 -0.65625 0.453125 -1.171875q0.296875 -0.515625 0.8125 -0.828125q0.515625 -0.3125 1.296875 -0.3125q0.515625 0 0.953125 0.171875q0.453125 0.171875 0.765625 0.484375q0.3125 0.296875 0.484375 0.703125q0.171875 0.40625 0.171875 0.859375l2.34375 0q0.015625 -0.9375 -0.34375 -1.71875q-0.34375 -0.78125 -0.96875 -1.34375q-0.625 -0.546875 -1.5 -0.859375q-0.859375 -0.3125 -1.875 -0.3125q-1.296875 0 -2.28125 0.453125q-0.96875 0.4375 -1.625 1.21875q-0.65625 0.765625 -0.984375 1.796875q-0.328125 1.03125 -0.328125 2.1875l0 0.359375q0 1.171875 0.328125 2.203125q0.34375 1.015625 1.0 1.796875q0.640625 0.765625 1.609375 1.21875q0.984375 0.453125 2.28125 0.453125q0.9375 0 1.78125 -0.296875q0.859375 -0.3125 1.515625 -0.859375q0.640625 -0.515625 1.015625 -1.234375q0.390625 -0.734375 0.375 -1.5625l-2.34375 0q0 0.4375 -0.1875 0.796875q-0.1875 0.34375 -0.515625 0.609375q-0.328125 0.25 -0.765625 0.390625q-0.4375 0.140625 -0.90625 0.140625zm15.095825 1.796875l2.53125 0l0 -0.171875q-0.203125 -0.4375 -0.3125 -1.046875q-0.109375 -0.609375 -0.109375 -1.375l0 -5.015625q0 -0.953125 -0.359375 -1.6875q-0.34375 -0.734375 -0.96875 -1.21875q-0.625 -0.46875 -1.484375 -0.703125q-0.859375 -0.25 -1.84375 -0.25q-1.109375 0 -1.96875 0.28125q-0.859375 0.28125 -1.4375 0.765625q-0.609375 0.484375 -0.921875 1.109375q-0.3125 0.625 -0.328125 1.296875l2.5 0q0 -0.3125 0.125 -0.59375q0.125 -0.296875 0.375 -0.5q0.25 -0.21875 0.625 -0.34375q0.375 -0.125 0.890625 -0.125q0.5625 0 0.984375 0.140625q0.4375 0.140625 0.75 0.40625q0.28125 0.265625 0.421875 0.625q0.15625 0.34375 0.15625 0.78125l0 0.765625l-1.8125 0q-1.21875 0 -2.1875 0.234375q-0.953125 0.21875 -1.609375 0.65625q-0.71875 0.46875 -1.09375 1.1875q-0.359375 0.703125 -0.359375 1.640625q0 0.71875 0.28125 1.34375q0.296875 0.609375 0.8125 1.046875q0.515625 0.453125 1.234375 0.703125q0.71875 0.25 1.59375 0.25q0.546875 0 1.015625 -0.109375q0.46875 -0.09375 0.875 -0.28125q0.40625 -0.171875 0.734375 -0.421875q0.328125 -0.25 0.59375 -0.515625q0.046875 0.328125 0.109375 0.625q0.078125 0.296875 0.1875 0.5zm-3.03125 -1.796875q-0.484375 0 -0.84375 -0.109375q-0.34375 -0.125 -0.578125 -0.328125q-0.25 -0.21875 -0.375 -0.515625q-0.125 -0.296875 -0.125 -0.640625q0 -0.40625 0.15625 -0.734375q0.15625 -0.34375 0.46875 -0.578125q0.34375 -0.28125 0.9375 -0.4375q0.59375 -0.15625 1.40625 -0.15625l1.609375 0l0 2.09375q-0.140625 0.265625 -0.390625 0.515625q-0.25 0.25 -0.59375 0.453125q-0.34375 0.1875 -0.765625 0.3125q-0.421875 0.125 -0.90625 0.125zm9.11145 -14.203125l0 2.078125l3.5625 0l0 11.859375l-3.5625 0l0 2.0625l9.484375 0l0 -2.0625l-3.40625 0l0 -13.9375l-6.078125 0zm19.517761 16.0l2.53125 0l0 -0.171875q-0.203125 -0.4375 -0.3125 -1.046875q-0.109375 -0.609375 -0.109375 -1.375l0 -5.015625q0 -0.953125 -0.359375 -1.6875q-0.34375 -0.734375 -0.96875 -1.21875q-0.625 -0.46875 -1.484375 -0.703125q-0.859375 -0.25 -1.84375 -0.25q-1.109375 0 -1.96875 0.28125q-0.859375 0.28125 -1.4375 0.765625q-0.609375 0.484375 -0.921875 1.109375q-0.3125 0.625 -0.328125 1.296875l2.5 0q0 -0.3125 0.125 -0.59375q0.125 -0.296875 0.375 -0.5q0.25 -0.21875 0.625 -0.34375q0.375 -0.125 0.890625 -0.125q0.5625 0 0.984375 0.140625q0.4375 0.140625 0.75 0.40625q0.28125 0.265625 0.421875 0.625q0.15625 0.34375 0.15625 0.78125l0 0.765625l-1.8125 0q-1.21875 0 -2.1875 0.234375q-0.953125 0.21875 -1.609375 0.65625q-0.71875 0.46875 -1.09375 1.1875q-0.359375 0.703125 -0.359375 1.640625q0 0.71875 0.28125 1.34375q0.296875 0.609375 0.8125 1.046875q0.515625 0.453125 1.234375 0.703125q0.71875 0.25 1.59375 0.25q0.546875 0 1.015625 -0.109375q0.46875 -0.09375 0.875 -0.28125q0.40625 -0.171875 0.734375 -0.421875q0.328125 -0.25 0.59375 -0.515625q0.046875 0.328125 0.109375 0.625q0.078125 0.296875 0.1875 0.5zm-3.03125 -1.796875q-0.484375 0 -0.84375 -0.109375q-0.34375 -0.125 -0.578125 -0.328125q-0.25 -0.21875 -0.375 -0.515625q-0.125 -0.296875 -0.125 -0.640625q0 -0.40625 0.15625 -0.734375q0.15625 -0.34375 0.46875 -0.578125q0.34375 -0.28125 0.9375 -0.4375q0.59375 -0.15625 1.40625 -0.15625l1.609375 0l0 2.09375q-0.140625 0.265625 -0.390625 0.515625q-0.25 0.25 -0.59375 0.453125q-0.34375 0.1875 -0.765625 0.3125q-0.421875 0.125 -0.90625 0.125zm16.42395 -9.671875q-1.171875 0 -2.140625 0.546875q-0.953125 0.53125 -1.640625 1.46875l-0.015625 -0.25l-0.09375 -1.5625l-2.34375 0l0 11.265625l2.5 0l0 -6.953125q0.1875 -0.5 0.484375 -0.890625q0.296875 -0.390625 0.703125 -0.640625q0.390625 -0.25 0.890625 -0.375q0.5 -0.125 1.125 -0.125q0.546875 0 1.109375 0.0625q0.5625 0.0625 1.125 0.1875l0.359375 -2.453125q-0.328125 -0.125 -0.890625 -0.203125q-0.5625 -0.078125 -1.171875 -0.078125z" fill-rule="nonzero"/><path fill="#000000" d="m767.9149 222.30754l0 -1.671875l-5.890625 0l2.8125 -3.0q0.5625 -0.59375 1.03125 -1.140625q0.46875 -0.5625 0.8125 -1.109375q0.34375 -0.546875 0.53125 -1.109375q0.203125 -0.5625 0.203125 -1.15625q0 -0.796875 -0.265625 -1.453125q-0.25 -0.671875 -0.75 -1.140625q-0.5 -0.484375 -1.234375 -0.75q-0.734375 -0.265625 -1.65625 -0.265625q-1.0 0 -1.796875 0.328125q-0.796875 0.3125 -1.359375 0.859375q-0.5625 0.546875 -0.875 1.28125q-0.296875 0.71875 -0.296875 1.546875l2.078125 0q0 -0.546875 0.140625 -0.96875q0.140625 -0.4375 0.421875 -0.734375q0.265625 -0.296875 0.671875 -0.453125q0.40625 -0.15625 0.96875 -0.15625q0.4375 0 0.78125 0.15625q0.359375 0.140625 0.609375 0.40625q0.25 0.265625 0.375 0.625q0.125 0.359375 0.125 0.8125q0 0.328125 -0.09375 0.65625q-0.078125 0.3125 -0.296875 0.6875q-0.203125 0.375 -0.5625 0.828125q-0.34375 0.4375 -0.859375 1.0l-4.109375 4.484375l0 1.4375l8.484375 0z" fill-rule="nonzero"/><path fill="#000000" d="m689.49915 243.07817l0 0.125q0 0.984375 0.140625 1.859375q0.15625 0.859375 0.421875 1.59375q0.25 0.734375 0.59375 1.34375q0.34375 0.609375 0.71875 1.078125q0.390625 0.484375 0.78125 0.8125q0.390625 0.328125 0.765625 0.5l0.328125 -0.921875q-0.265625 -0.21875 -0.546875 -0.546875q-0.28125 -0.3125 -0.53125 -0.734375q-0.25 -0.40625 -0.46875 -0.9375q-0.21875 -0.53125 -0.390625 -1.15625q-0.125 -0.53125 -0.234375 -1.265625q-0.09375 -0.75 -0.09375 -1.625l0 -0.140625q0 -0.890625 0.09375 -1.65625q0.109375 -0.765625 0.28125 -1.390625q0.1875 -0.671875 0.453125 -1.234375q0.265625 -0.578125 0.5625 -1.0q0.21875 -0.296875 0.4375 -0.53125q0.21875 -0.234375 0.4375 -0.40625l-0.328125 -0.96875q-0.375 0.1875 -0.765625 0.515625q-0.390625 0.328125 -0.765625 0.796875q-0.390625 0.46875 -0.734375 1.09375q-0.34375 0.609375 -0.59375 1.328125q-0.265625 0.75 -0.421875 1.625q-0.140625 0.859375 -0.140625 1.84375zm8.923096 -1.6875l0 1.296875l1.0 0q0.421875 0 0.765625 0.109375q0.359375 0.09375 0.609375 0.296875q0.25 0.203125 0.375 0.515625q0.140625 0.3125 0.140625 0.75q0 0.390625 -0.125 0.703125q-0.109375 0.296875 -0.3125 0.5q-0.234375 0.203125 -0.5625 0.3125q-0.3125 0.109375 -0.71875 0.109375q-0.375 0 -0.6875 -0.109375q-0.296875 -0.109375 -0.515625 -0.3125q-0.234375 -0.1875 -0.359375 -0.46875q-0.125 -0.28125 -0.125 -0.625l-1.65625 0q0 0.71875 0.265625 1.25q0.28125 0.53125 0.75 0.890625q0.453125 0.359375 1.046875 0.546875q0.609375 0.171875 1.265625 0.171875q0.71875 0 1.34375 -0.1875q0.625 -0.203125 1.078125 -0.59375q0.453125 -0.375 0.703125 -0.921875q0.265625 -0.5625 0.265625 -1.265625q0 -0.375 -0.09375 -0.734375q-0.078125 -0.359375 -0.28125 -0.671875q-0.203125 -0.3125 -0.515625 -0.546875q-0.3125 -0.25 -0.765625 -0.40625q0.375 -0.171875 0.65625 -0.421875q0.296875 -0.25 0.484375 -0.53125q0.1875 -0.296875 0.28125 -0.609375q0.09375 -0.3125 0.09375 -0.625q0 -0.703125 -0.25 -1.234375q-0.234375 -0.546875 -0.65625 -0.90625q-0.421875 -0.359375 -1.03125 -0.546875q-0.59375 -0.1875 -1.3125 -0.1875q-0.703125 0 -1.296875 0.21875q-0.578125 0.203125 -1.0 0.5625q-0.4375 0.375 -0.6875 0.890625q-0.234375 0.5 -0.234375 1.109375l1.65625 0q0 -0.328125 0.125 -0.59375q0.125 -0.265625 0.328125 -0.453125q0.21875 -0.1875 0.5 -0.28125q0.296875 -0.109375 0.625 -0.109375q0.390625 0 0.6875 0.109375q0.296875 0.109375 0.484375 0.296875q0.1875 0.203125 0.28125 0.484375q0.109375 0.28125 0.109375 0.640625q0 0.328125 -0.109375 0.625q-0.09375 0.28125 -0.296875 0.484375q-0.21875 0.21875 -0.5625 0.34375q-0.328125 0.125 -0.765625 0.125l-1.0 0zm13.063782 -1.640625q0 -0.671875 -0.234375 -1.203125q-0.234375 -0.53125 -0.640625 -0.875q-0.421875 -0.359375 -1.0 -0.546875q-0.5625 -0.1875 -1.21875 -0.1875q-0.671875 0 -1.25 0.1875q-0.5625 0.1875 -0.953125 0.546875q-0.421875 0.359375 -0.65625 0.890625q-0.21875 0.515625 -0.21875 1.1875q0 0.375 0.09375 0.71875q0.109375 0.328125 0.296875 0.609375q0.171875 0.28125 0.4375 0.515625q0.265625 0.234375 0.578125 0.390625q-0.375 0.171875 -0.671875 0.421875q-0.296875 0.234375 -0.515625 0.546875q-0.21875 0.3125 -0.34375 0.6875q-0.109375 0.375 -0.109375 0.796875q0 0.703125 0.25 1.25q0.265625 0.53125 0.71875 0.890625q0.4375 0.375 1.046875 0.5625q0.609375 0.1875 1.3125 0.1875q0.703125 0 1.296875 -0.1875q0.59375 -0.1875 1.046875 -0.5625q0.453125 -0.359375 0.703125 -0.890625q0.265625 -0.546875 0.265625 -1.25q0 -0.5 -0.171875 -0.921875q-0.15625 -0.421875 -0.4375 -0.75q-0.203125 -0.25 -0.46875 -0.4375q-0.265625 -0.1875 -0.578125 -0.34375q0.265625 -0.125 0.46875 -0.296875q0.21875 -0.171875 0.390625 -0.375q0.265625 -0.3125 0.40625 -0.703125q0.15625 -0.40625 0.15625 -0.859375zm-1.4375 4.59375q0 0.390625 -0.125 0.703125q-0.125 0.296875 -0.328125 0.515625q-0.21875 0.203125 -0.53125 0.3125q-0.296875 0.109375 -0.65625 0.109375q-0.375 0 -0.6875 -0.109375q-0.296875 -0.109375 -0.515625 -0.3125q-0.21875 -0.203125 -0.34375 -0.5q-0.109375 -0.3125 -0.109375 -0.703125q0 -0.390625 0.109375 -0.6875q0.125 -0.3125 0.328125 -0.546875q0.21875 -0.21875 0.515625 -0.328125q0.3125 -0.125 0.6875 -0.125q0.375 0 0.671875 0.125q0.3125 0.109375 0.53125 0.328125q0.21875 0.234375 0.328125 0.546875q0.125 0.296875 0.125 0.671875zm-0.203125 -4.53125q0 0.328125 -0.109375 0.609375q-0.109375 0.28125 -0.296875 0.484375q-0.1875 0.203125 -0.453125 0.3125q-0.25 0.109375 -0.578125 0.109375q-0.328125 0 -0.59375 -0.109375q-0.265625 -0.109375 -0.453125 -0.3125q-0.1875 -0.203125 -0.296875 -0.484375q-0.09375 -0.28125 -0.09375 -0.609375q0 -0.359375 0.09375 -0.640625q0.109375 -0.28125 0.28125 -0.46875q0.1875 -0.203125 0.4375 -0.3125q0.265625 -0.109375 0.59375 -0.109375q0.34375 0 0.59375 0.125q0.265625 0.109375 0.46875 0.296875q0.1875 0.203125 0.296875 0.484375q0.109375 0.28125 0.109375 0.625zm9.344971 3.765625l0 -6.5l-1.703125 0l-4.375 6.828125l0.046875 1.03125l4.375 0l0 2.25l1.65625 0l0 -2.25l1.265625 0l0 -1.359375l-1.265625 0zm-4.375 0l2.515625 -3.921875l0.203125 -0.359375l0 4.28125l-2.71875 0zm13.735657 -0.15625l0 -1.34375l-5.59375 0l0 1.34375l5.59375 0zm8.844971 0.09375l0 -0.15625q0 -0.640625 -0.109375 -1.203125q-0.109375 -0.578125 -0.328125 -1.03125q-0.171875 -0.34375 -0.390625 -0.625q-0.21875 -0.28125 -0.5 -0.46875q-0.328125 -0.234375 -0.734375 -0.359375q-0.40625 -0.140625 -0.890625 -0.140625q-0.359375 0 -0.6875 0.078125q-0.3125 0.078125 -0.578125 0.21875q-0.203125 0.109375 -0.375 0.265625q-0.171875 0.140625 -0.3125 0.3125l0 -3.890625l-1.65625 0l0 10.671875l1.5 0l0.078125 -0.8125q0.125 0.140625 0.25 0.28125q0.140625 0.125 0.296875 0.234375q0.296875 0.21875 0.671875 0.328125q0.375 0.109375 0.828125 0.109375q0.453125 0 0.828125 -0.125q0.390625 -0.109375 0.703125 -0.3125q0.390625 -0.265625 0.671875 -0.640625q0.28125 -0.390625 0.4375 -0.875q0.15625 -0.40625 0.21875 -0.875q0.078125 -0.46875 0.078125 -0.984375zm-1.65625 -0.15625l0 0.15625q0 0.296875 -0.03125 0.59375q-0.03125 0.296875 -0.109375 0.546875q-0.078125 0.328125 -0.234375 0.59375q-0.15625 0.265625 -0.40625 0.4375q-0.171875 0.125 -0.40625 0.203125q-0.21875 0.078125 -0.515625 0.078125q-0.3125 0 -0.5625 -0.078125q-0.25 -0.078125 -0.4375 -0.21875q-0.1875 -0.140625 -0.328125 -0.3125q-0.125 -0.171875 -0.21875 -0.375l0 -3.109375q0.078125 -0.171875 0.1875 -0.328125q0.125 -0.15625 0.265625 -0.28125q0.203125 -0.171875 0.46875 -0.265625q0.28125 -0.09375 0.609375 -0.09375q0.28125 0 0.5 0.0625q0.234375 0.0625 0.40625 0.1875q0.265625 0.171875 0.421875 0.4375q0.15625 0.265625 0.25 0.578125q0.0625 0.265625 0.09375 0.578125q0.046875 0.296875 0.046875 0.609375zm3.9700317 -3.6875l0 1.390625l2.3125 0l0 4.75l-2.3125 0l0 1.375l6.203125 0l0 -1.375l-2.21875 0l0 -6.140625l-3.984375 0zm2.15625 -1.9375q0 0.265625 0.125 0.46875q0.140625 0.1875 0.390625 0.265625q0.234375 0.078125 0.4375 0.03125q0.203125 -0.046875 0.359375 -0.171875q0.28125 -0.078125 0.4375 -0.296875q0.15625 -0.234375 0.109375 -0.53125q-0.046875 -0.296875 -0.28125 -0.484375q-0.21875 -0.203125 -0.59375 -0.203125q-0.234375 0 -0.40625 0.078125q-0.171875 0.0625 -0.296875 0.171875q-0.140625 0.125 -0.21875 0.296875q-0.0625 0.171875 -0.0625 0.375zm9.329346 0.109375l-1.65625 0l0 1.828125l-1.828125 0l0 1.25l1.828125 0l0 3.6875q0 0.71875 0.1875 1.234375q0.1875 0.515625 0.53125 0.84375q0.328125 0.328125 0.796875 0.484375q0.484375 0.15625 1.0625 0.15625q0.3125 0 0.625 -0.03125q0.3125 -0.03125 0.609375 -0.078125q0.296875 -0.0625 0.546875 -0.140625q0.25 -0.078125 0.4375 -0.1875l-0.1875 -1.140625q-0.125 0.015625 -0.3125 0.0625q-0.1875 0.03125 -0.390625 0.0625q-0.21875 0.03125 -0.453125 0.0625q-0.21875 0.015625 -0.4375 0.015625q-0.296875 0 -0.546875 -0.0625q-0.25 -0.078125 -0.421875 -0.25q-0.1875 -0.15625 -0.296875 -0.4375q-0.09375 -0.28125 -0.09375 -0.703125l0 -3.578125l2.828125 0l0 -1.25l-2.828125 0l0 -1.828125zm10.157532 5.359375l0 -0.125q0 -1.0 -0.171875 -1.84375q-0.15625 -0.84375 -0.40625 -1.59375q-0.265625 -0.734375 -0.609375 -1.34375q-0.34375 -0.609375 -0.734375 -1.09375q-0.390625 -0.46875 -0.796875 -0.796875q-0.40625 -0.34375 -0.78125 -0.53125l-0.328125 0.9375q0.21875 0.15625 0.4375 0.40625q0.234375 0.25 0.4375 0.5625q0.296875 0.4375 0.5625 1.03125q0.28125 0.59375 0.484375 1.34375q0.140625 0.578125 0.234375 1.3125q0.109375 0.734375 0.109375 1.59375l0 0.140625q0 0.84375 -0.09375 1.578125q-0.078125 0.71875 -0.234375 1.328125q-0.15625 0.65625 -0.390625 1.203125q-0.234375 0.546875 -0.5 0.96875q-0.25 0.390625 -0.515625 0.6875q-0.265625 0.296875 -0.53125 0.5l0.328125 0.921875q0.375 -0.171875 0.78125 -0.515625q0.40625 -0.328125 0.796875 -0.8125q0.375 -0.46875 0.71875 -1.078125q0.359375 -0.609375 0.625 -1.359375q0.265625 -0.734375 0.421875 -1.59375q0.15625 -0.859375 0.15625 -1.828125z" fill-rule="nonzero"/><path fill="#000000" fill-opacity="0.0" d="m238.8601 85.38092l82.299194 0" fill-rule="evenodd"/><path stroke="#595959" stroke-width="3.0" stroke-linejoin="round" stroke-linecap="butt" d="m238.86009 85.38091l64.29921 0" fill-rule="evenodd"/><path fill="#595959" stroke="#595959" stroke-width="3.0" stroke-linecap="butt" d="m303.1593 90.33611l13.614288 -4.9552l-13.614288 -4.9551926z" fill-rule="evenodd"/><path fill="#000000" fill-opacity="0.0" d="m377.2374 203.34535l148.81888 0" fill-rule="evenodd"/><path stroke="#595959" stroke-width="3.0" stroke-linejoin="round" stroke-linecap="butt" d="m377.2374 203.34535l130.81891 0" fill-rule="evenodd"/><path fill="#595959" stroke="#595959" stroke-width="3.0" stroke-linecap="butt" d="m508.0563 208.30055l13.614288 -4.9552l-13.614288 -4.9552z" fill-rule="evenodd"/><path fill="#000000" fill-opacity="0.0" d="m378.662 142.89273l0 58.960632" fill-rule="evenodd"/><path stroke="#595959" stroke-width="3.0" stroke-linejoin="round" stroke-linecap="butt" d="m378.662 142.89273l0 58.960632" fill-rule="evenodd"/><path fill="#000000" fill-opacity="0.0" d="m378.6599 204.96938l0 58.960617" fill-rule="evenodd"/><path stroke="#595959" stroke-width="3.0" stroke-linejoin="round" stroke-linecap="butt" d="m378.6599 204.96938l0 58.960617" fill-rule="evenodd"/><path fill="#000000" fill-opacity="0.0" d="m378.66376 173.9251l0 58.960632" fill-rule="evenodd"/><path stroke="#595959" stroke-width="3.0" stroke-linejoin="round" stroke-linecap="butt" d="m378.66376 173.9251l0 58.960632" fill-rule="evenodd"/><path fill="#eeeeee" d="m297.27408 345.31583l0 0c0 -44.94815 36.437683 -81.38583 81.38583 -81.38583l0 0c21.58487 0 42.285675 8.574554 57.548462 23.837372c15.262817 15.262787 23.837372 35.963593 23.837372 57.548462l0 0c0 44.94815 -36.437683 81.38583 -81.38583 81.38583l0 0c-44.94815 0 -81.38583 -36.437683 -81.38583 -81.38583z" fill-rule="evenodd"/><path stroke="#595959" stroke-width="3.0" stroke-linejoin="round" stroke-linecap="butt" d="m297.27408 345.31583l0 0c0 -44.94815 36.437683 -81.38583 81.38583 -81.38583l0 0c21.58487 0 42.285675 8.574554 57.548462 23.837372c15.262817 15.262787 23.837372 35.963593 23.837372 57.548462l0 0c0 44.94815 -36.437683 81.38583 -81.38583 81.38583l0 0c-44.94815 0 -81.38583 -36.437683 -81.38583 -81.38583z" fill-rule="evenodd"/><path fill="#000000" fill-opacity="0.0" d="m296.85965 320.1393l162.77164 0l0 77.25986l-162.77164 0z" fill-rule="evenodd"/><path fill="#000000" d="m342.5582 359.06744l2.484375 0l0 -5.34375q0.203125 0.21875 0.421875 0.40625q0.234375 0.1875 0.484375 0.328125q0.421875 0.234375 0.921875 0.359375q0.515625 0.125 1.125 0.125q1.0625 0 1.875 -0.4375q0.828125 -0.4375 1.390625 -1.203125q0.5625 -0.765625 0.84375 -1.8125q0.28125 -1.046875 0.28125 -2.265625l0 -0.21875q0 -1.28125 -0.296875 -2.328125q-0.28125 -1.0625 -0.828125 -1.828125q-0.5625 -0.75 -1.390625 -1.15625q-0.828125 -0.421875 -1.90625 -0.421875q-0.5625 0 -1.046875 0.125q-0.484375 0.109375 -0.890625 0.328125q-0.3125 0.171875 -0.59375 0.40625q-0.265625 0.21875 -0.5 0.5l-0.09375 -1.15625l-2.28125 0l0 15.59375zm7.34375 -10.0625l0 0.21875q0 0.75 -0.140625 1.421875q-0.140625 0.671875 -0.46875 1.1875q-0.3125 0.515625 -0.8125 0.8125q-0.484375 0.296875 -1.1875 0.296875q-0.421875 0 -0.78125 -0.09375q-0.359375 -0.109375 -0.640625 -0.28125q-0.265625 -0.171875 -0.484375 -0.40625q-0.203125 -0.25 -0.34375 -0.53125l0 -5.015625q0.171875 -0.3125 0.390625 -0.5625q0.21875 -0.25 0.53125 -0.421875q0.25 -0.15625 0.578125 -0.234375q0.34375 -0.078125 0.734375 -0.078125q0.6875 0 1.1875 0.296875q0.5 0.28125 0.828125 0.78125q0.3125 0.5 0.453125 1.171875q0.15625 0.671875 0.15625 1.4375zm4.9708557 0l0 0.21875q0 1.234375 0.34375 2.28125q0.359375 1.03125 1.046875 1.8125q0.65625 0.765625 1.640625 1.203125q0.984375 0.4375 2.21875 0.4375q1.234375 0 2.203125 -0.4375q0.96875 -0.4375 1.640625 -1.203125q0.65625 -0.78125 1.015625 -1.8125q0.359375 -1.046875 0.359375 -2.28125l0 -0.21875q0 -1.234375 -0.359375 -2.28125q-0.359375 -1.046875 -1.015625 -1.8125q-0.671875 -0.78125 -1.65625 -1.203125q-0.96875 -0.4375 -2.203125 -0.4375q-1.25 0 -2.21875 0.4375q-0.96875 0.421875 -1.625 1.203125q-0.6875 0.765625 -1.046875 1.8125q-0.34375 1.046875 -0.34375 2.28125zm2.484375 0.21875l0 -0.21875q0 -0.75 0.15625 -1.421875q0.171875 -0.671875 0.515625 -1.1875q0.328125 -0.515625 0.84375 -0.8125q0.515625 -0.296875 1.234375 -0.296875q0.71875 0 1.234375 0.296875q0.515625 0.296875 0.859375 0.8125q0.3125 0.515625 0.484375 1.1875q0.171875 0.671875 0.171875 1.421875l0 0.21875q0 0.75 -0.171875 1.4375q-0.15625 0.671875 -0.484375 1.1875q-0.34375 0.5 -0.859375 0.796875q-0.515625 0.296875 -1.21875 0.296875q-0.71875 0 -1.25 -0.296875q-0.515625 -0.296875 -0.84375 -0.796875q-0.34375 -0.515625 -0.515625 -1.1875q-0.15625 -0.6875 -0.15625 -1.4375zm11.345825 -5.75l0 2.0625l3.46875 0l0 7.140625l-3.46875 0l0 2.0625l9.28125 0l0 -2.0625l-3.296875 0l0 -9.203125l-5.984375 0zm3.234375 -2.921875q0 0.40625 0.1875 0.703125q0.203125 0.296875 0.578125 0.40625q0.359375 0.109375 0.65625 0.046875q0.3125 -0.0625 0.53125 -0.25q0.4375 -0.125 0.65625 -0.453125q0.234375 -0.34375 0.171875 -0.796875q-0.0625 -0.453125 -0.40625 -0.734375q-0.34375 -0.296875 -0.90625 -0.296875q-0.34375 0 -0.609375 0.109375q-0.265625 0.09375 -0.453125 0.265625q-0.1875 0.1875 -0.296875 0.453125q-0.109375 0.25 -0.109375 0.546875zm8.986481 14.1875l2.5 0l0 -8.046875q0.15625 -0.28125 0.375 -0.515625q0.21875 -0.234375 0.46875 -0.40625q0.328125 -0.21875 0.71875 -0.328125q0.40625 -0.125 0.859375 -0.125q0.546875 0 0.96875 0.125q0.4375 0.109375 0.734375 0.390625q0.3125 0.28125 0.46875 0.75q0.15625 0.46875 0.15625 1.171875l0 6.984375l2.484375 0l0 -7.03125q0 -1.1875 -0.28125 -2.015625q-0.28125 -0.84375 -0.796875 -1.390625q-0.5 -0.53125 -1.21875 -0.78125q-0.71875 -0.25 -1.59375 -0.25q-0.65625 0 -1.25 0.1875q-0.59375 0.1875 -1.09375 0.53125q-0.3125 0.203125 -0.59375 0.484375q-0.265625 0.28125 -0.5 0.59375l-0.15625 -1.59375l-2.25 0l0 11.265625zm17.79895 -14.015625l-2.5 0l0 2.75l-2.71875 0l0 1.859375l2.71875 0l0 5.546875q0 1.078125 0.28125 1.859375q0.296875 0.765625 0.8125 1.25q0.5 0.5 1.21875 0.734375q0.71875 0.234375 1.5625 0.234375q0.46875 0 0.9375 -0.046875q0.484375 -0.046875 0.921875 -0.125q0.4375 -0.09375 0.8125 -0.203125q0.375 -0.125 0.65625 -0.296875l-0.28125 -1.71875q-0.1875 0.046875 -0.46875 0.109375q-0.265625 0.046875 -0.578125 0.09375q-0.3125 0.046875 -0.65625 0.078125q-0.34375 0.03125 -0.671875 0.03125q-0.453125 0 -0.828125 -0.09375q-0.375 -0.109375 -0.640625 -0.359375q-0.265625 -0.234375 -0.421875 -0.65625q-0.15625 -0.421875 -0.15625 -1.046875l0 -5.390625l4.234375 0l0 -1.859375l-4.234375 0l0 -2.75z" fill-rule="nonzero"/><path fill="#000000" d="m414.30304 364.73932l0 -1.671875l-5.890625 0l2.8125 -3.0q0.5625 -0.59375 1.03125 -1.140625q0.46875 -0.5625 0.8125 -1.109375q0.34375 -0.546875 0.53125 -1.109375q0.203125 -0.5625 0.203125 -1.15625q0 -0.796875 -0.265625 -1.453125q-0.25 -0.671875 -0.75 -1.140625q-0.5 -0.484375 -1.234375 -0.75q-0.734375 -0.265625 -1.65625 -0.265625q-1.0 0 -1.796875 0.328125q-0.796875 0.3125 -1.359375 0.859375q-0.5625 0.546875 -0.875 1.28125q-0.296875 0.71875 -0.296875 1.546875l2.078125 0q0 -0.546875 0.140625 -0.96875q0.140625 -0.4375 0.421875 -0.734375q0.265625 -0.296875 0.671875 -0.453125q0.40625 -0.15625 0.96875 -0.15625q0.4375 0 0.78125 0.15625q0.359375 0.140625 0.609375 0.40625q0.25 0.265625 0.375 0.625q0.125 0.359375 0.125 0.8125q0 0.328125 -0.09375 0.65625q-0.078125 0.3125 -0.296875 0.6875q-0.203125 0.375 -0.5625 0.828125q-0.34375 0.4375 -0.859375 1.0l-4.109375 4.484375l0 1.4375l8.484375 0z" fill-rule="nonzero"/><path fill="#000000" d="m348.53397 378.07996l0 0.125q0 0.921875 0.140625 1.734375q0.140625 0.8125 0.390625 1.5q0.234375 0.6875 0.546875 1.25q0.328125 0.578125 0.6875 1.03125q0.359375 0.4375 0.71875 0.75q0.375 0.3125 0.734375 0.46875l0.3125 -0.859375q-0.265625 -0.203125 -0.53125 -0.515625q-0.25 -0.296875 -0.5 -0.6875q-0.21875 -0.375 -0.4375 -0.875q-0.203125 -0.5 -0.359375 -1.09375q-0.125 -0.484375 -0.21875 -1.1875q-0.078125 -0.703125 -0.078125 -1.515625l0 -0.125q0 -0.84375 0.09375 -1.546875q0.09375 -0.71875 0.25 -1.3125q0.171875 -0.640625 0.421875 -1.171875q0.25 -0.53125 0.53125 -0.921875q0.203125 -0.28125 0.40625 -0.5q0.203125 -0.234375 0.421875 -0.390625l-0.3125 -0.890625q-0.359375 0.15625 -0.734375 0.46875q-0.359375 0.3125 -0.71875 0.75q-0.34375 0.453125 -0.671875 1.03125q-0.328125 0.5625 -0.5625 1.25q-0.25 0.6875 -0.390625 1.515625q-0.140625 0.8125 -0.140625 1.71875zm11.373199 -5.65625l-0.1875 0q-1.109375 0 -1.96875 0.34375q-0.84375 0.34375 -1.4375 0.984375q-0.6875 0.75 -0.984375 1.796875q-0.296875 1.03125 -0.296875 2.171875l0 0.640625q0 0.765625 0.21875 1.453125q0.21875 0.6875 0.65625 1.1875q0.40625 0.5 0.984375 0.78125q0.59375 0.28125 1.328125 0.28125q0.734375 0 1.296875 -0.25q0.578125 -0.25 0.96875 -0.6875q0.390625 -0.4375 0.59375 -1.015625q0.21875 -0.59375 0.21875 -1.28125q0 -0.609375 -0.171875 -1.1875q-0.15625 -0.578125 -0.484375 -1.015625q-0.34375 -0.4375 -0.859375 -0.703125q-0.5 -0.265625 -1.1875 -0.265625q-0.328125 0 -0.625 0.078125q-0.296875 0.078125 -0.53125 0.203125q-0.25 0.125 -0.46875 0.296875q-0.203125 0.171875 -0.359375 0.34375q0.0625 -0.609375 0.265625 -1.125q0.21875 -0.53125 0.625 -0.921875q0.390625 -0.375 0.953125 -0.578125q0.578125 -0.21875 1.34375 -0.21875l0.109375 0l0 -1.3125zm-1.703125 4.5q0.375 0 0.65625 0.15625q0.296875 0.15625 0.5 0.421875q0.1875 0.265625 0.28125 0.625q0.109375 0.34375 0.109375 0.75q0 0.40625 -0.109375 0.765625q-0.09375 0.359375 -0.296875 0.625q-0.203125 0.25 -0.484375 0.40625q-0.28125 0.140625 -0.65625 0.140625q-0.328125 0 -0.625 -0.15625q-0.28125 -0.15625 -0.515625 -0.4375q-0.21875 -0.28125 -0.34375 -0.703125q-0.125 -0.4375 -0.125 -1.0l0 -0.484375q0.109375 -0.25 0.265625 -0.4375q0.15625 -0.203125 0.34375 -0.34375q0.21875 -0.15625 0.46875 -0.234375q0.25 -0.09375 0.53125 -0.09375zm10.170044 1.640625l0 -6.09375l-1.609375 0l-4.09375 6.390625l0.046875 0.96875l4.09375 0l0 2.109375l1.5625 0l0 -2.109375l1.1875 0l0 -1.265625l-1.1875 0zm-4.109375 0l2.375 -3.671875l0.171875 -0.34375l0 4.015625l-2.546875 0zm12.873199 -0.15625l0 -1.265625l-5.234375 0l0 1.265625l5.234375 0zm8.310669 0.078125l0 -0.125q0 -0.609375 -0.109375 -1.140625q-0.109375 -0.53125 -0.3125 -0.96875q-0.15625 -0.3125 -0.375 -0.578125q-0.203125 -0.265625 -0.453125 -0.4375q-0.3125 -0.234375 -0.703125 -0.34375q-0.375 -0.125 -0.828125 -0.125q-0.34375 0 -0.640625 0.078125q-0.296875 0.0625 -0.546875 0.203125q-0.1875 0.09375 -0.34375 0.234375q-0.15625 0.140625 -0.296875 0.296875l0 -3.640625l-1.5625 0l0 10.0l1.40625 0l0.078125 -0.765625q0.109375 0.140625 0.234375 0.265625q0.140625 0.109375 0.28125 0.21875q0.28125 0.203125 0.625 0.296875q0.359375 0.109375 0.78125 0.109375q0.421875 0 0.78125 -0.109375q0.359375 -0.09375 0.65625 -0.296875q0.359375 -0.234375 0.625 -0.59375q0.265625 -0.375 0.421875 -0.828125q0.125 -0.375 0.203125 -0.8125q0.078125 -0.453125 0.078125 -0.9375zm-1.5625 -0.125l0 0.125q0 0.296875 -0.03125 0.578125q-0.03125 0.265625 -0.09375 0.5q-0.078125 0.3125 -0.234375 0.5625q-0.140625 0.25 -0.375 0.40625q-0.15625 0.125 -0.375 0.203125q-0.21875 0.0625 -0.484375 0.0625q-0.296875 0 -0.53125 -0.078125q-0.234375 -0.078125 -0.421875 -0.203125q-0.15625 -0.125 -0.28125 -0.28125q-0.125 -0.171875 -0.21875 -0.359375l0 -2.921875q0.078125 -0.15625 0.1875 -0.296875q0.109375 -0.15625 0.234375 -0.265625q0.1875 -0.171875 0.4375 -0.25q0.265625 -0.09375 0.578125 -0.09375q0.265625 0 0.46875 0.0625q0.21875 0.0625 0.375 0.171875q0.25 0.171875 0.390625 0.421875q0.15625 0.234375 0.234375 0.53125q0.078125 0.25 0.109375 0.53125q0.03125 0.28125 0.03125 0.59375zm3.7169495 -3.46875l0 1.296875l2.171875 0l0 4.46875l-2.171875 0l0 1.28125l5.8125 0l0 -1.28125l-2.0625 0l0 -5.765625l-3.75 0zm2.03125 -1.8125q0 0.25 0.109375 0.4375q0.125 0.171875 0.359375 0.25q0.234375 0.0625 0.421875 0.03125q0.1875 -0.046875 0.328125 -0.15625q0.265625 -0.078125 0.40625 -0.28125q0.15625 -0.21875 0.109375 -0.5q-0.03125 -0.28125 -0.25 -0.453125q-0.21875 -0.1875 -0.578125 -0.1875q-0.203125 0 -0.375 0.0625q-0.15625 0.0625 -0.28125 0.171875q-0.125 0.109375 -0.1875 0.28125q-0.0625 0.15625 -0.0625 0.34375zm8.732544 0.09375l-1.546875 0l0 1.71875l-1.71875 0l0 1.171875l1.71875 0l0 3.453125q0 0.6875 0.171875 1.171875q0.171875 0.46875 0.5 0.78125q0.3125 0.3125 0.75 0.46875q0.453125 0.140625 0.984375 0.140625q0.296875 0 0.59375 -0.03125q0.296875 -0.03125 0.578125 -0.078125q0.265625 -0.0625 0.5 -0.125q0.234375 -0.078125 0.40625 -0.1875l-0.171875 -1.078125q-0.109375 0.03125 -0.28125 0.078125q-0.171875 0.03125 -0.375 0.046875q-0.1875 0.03125 -0.40625 0.0625q-0.21875 0.015625 -0.421875 0.015625q-0.28125 0 -0.515625 -0.0625q-0.234375 -0.0625 -0.40625 -0.21875q-0.15625 -0.15625 -0.265625 -0.421875q-0.09375 -0.265625 -0.09375 -0.65625l0 -3.359375l2.65625 0l0 -1.171875l-2.65625 0l0 -1.71875zm9.529449 5.03125l0 -0.125q0 -0.921875 -0.15625 -1.71875q-0.15625 -0.796875 -0.390625 -1.484375q-0.234375 -0.703125 -0.5625 -1.265625q-0.328125 -0.578125 -0.703125 -1.03125q-0.359375 -0.4375 -0.734375 -0.75q-0.375 -0.328125 -0.734375 -0.484375l-0.3125 0.859375q0.203125 0.15625 0.40625 0.390625q0.21875 0.234375 0.421875 0.53125q0.28125 0.40625 0.53125 0.96875q0.265625 0.5625 0.4375 1.25q0.140625 0.546875 0.234375 1.234375q0.09375 0.6875 0.09375 1.5l0 0.125q0 0.796875 -0.09375 1.46875q-0.078125 0.671875 -0.21875 1.25q-0.140625 0.625 -0.359375 1.125q-0.21875 0.515625 -0.46875 0.921875q-0.234375 0.359375 -0.484375 0.640625q-0.25 0.28125 -0.5 0.46875l0.3125 0.859375q0.359375 -0.15625 0.734375 -0.46875q0.375 -0.3125 0.734375 -0.78125q0.359375 -0.4375 0.6875 -1.015625q0.328125 -0.5625 0.578125 -1.265625q0.25 -0.6875 0.390625 -1.484375q0.15625 -0.8125 0.15625 -1.71875z" fill-rule="nonzero"/><path fill="#000000" fill-opacity="0.0" d="m222.01529 126.04791l99.08661 161.73227" fill-rule="evenodd"/><path stroke="#595959" stroke-width="3.0" stroke-linejoin="round" stroke-linecap="butt" d="m222.01527 126.04791l89.68324 146.38379" fill-rule="evenodd"/><path fill="#595959" stroke="#595959" stroke-width="3.0" stroke-linecap="butt" d="m307.47324 275.02032l11.337524 9.020203l-2.8869934 -14.197479z" fill-rule="evenodd"/><path fill="#eeeeee" d="m477.9292 71.13922l31.527557 0l0 28.472443l-31.527557 0z" fill-rule="evenodd"/><path fill="#000000" d="m494.8091 83.68044l0 -3.921875l-2.203125 0l0 3.921875l-3.734375 0l0 2.0625l3.734375 0l0 4.046875l2.203125 0l0 -4.046875l3.59375 0l0 -2.0625l-3.59375 0zm3.21875 9.375l0 -2.046875l-8.84375 0l0 2.046875l8.84375 0z" fill-rule="nonzero"/><path fill="#000000" fill-opacity="0.0" d="m413.51044 130.74306c8.844391 8.830704 35.74521 2.6586456 49.77426 -14.44577c14.029022 -17.104416 15.186249 -45.141167 2.8945923 -61.25286c-12.291687 -16.111694 -38.032227 -20.298325 -46.873596 -11.450977" fill-rule="evenodd"/><path stroke="#595959" stroke-width="3.0" stroke-linejoin="round" stroke-linecap="butt" d="m413.5104 130.74304c8.844421 8.830719 35.74524 2.658661 49.774292 -14.445755c14.029022 -17.104416 15.186218 -45.141167 2.8945923 -61.25286c-6.145813 -8.055847 -15.65387 -13.130428 -24.730621 -15.085129c-1.134613 -0.24433899 -2.2624817 -0.43992615 -3.3761902 -0.58649826c-0.27844238 -0.036643982 -0.55599976 -0.07022095 -0.83251953 -0.100730896c-0.13824463 -0.015258789 -0.27630615 -0.029743195 -0.4140625 -0.043468475l-0.05883789 -0.005542755" fill-rule="evenodd"/><path stroke="#595959" stroke-width="3.0" stroke-linecap="butt" d="m435.56393 34.416138l-12.003784 8.112461l14.410034 1.5013809z" fill-rule="evenodd"/><path fill="#000000" fill-opacity="0.0" d="m429.39935 410.33694c12.472534 12.451996 50.403168 3.7453613 70.18207 -20.376526c19.77893 -24.121857 21.406128 -63.658966 4.0715637 -86.37811c-17.334534 -22.719147 -53.630768 -28.62033 -66.09613 -16.143005" fill-rule="evenodd"/><path stroke="#595959" stroke-width="3.0" stroke-linejoin="round" stroke-linecap="butt" d="m429.39935 410.33694c12.472534 12.451965 50.403137 3.7453613 70.18207 -20.376526c19.77887 -24.121887 21.406128 -63.658966 4.071594 -86.37814c-8.667297 -11.359558 -22.075012 -18.514648 -34.874054 -21.270172c-3.199768 -0.6888733 -6.3614807 -1.1027832 -9.401581 -1.2386475c-1.52005 -0.06796265 -3.009674 -0.06640625 -4.458496 0.005065918l-0.5126648 0.028442383" fill-rule="evenodd"/><path stroke="#595959" stroke-width="3.0" stroke-linecap="butt" d="m452.663 276.46854l-11.000793 9.427887l14.487244 -0.15100098z" fill-rule="evenodd"/><path fill="#eeeeee" d="m519.1457 331.07623l44.59845 0l0 28.472443l-44.59845 0z" fill-rule="evenodd"/><path fill="#000000" fill-opacity="0.0" d="m519.14575 323.5723l51.55902 0l0 35.968506l-51.55902 0z" fill-rule="evenodd"/><path fill="#000000" d="m535.6614 344.72415l0 -4.234375l-2.40625 0l0 4.234375l-4.0 0l0 2.34375l4.0 0l0 4.46875l2.40625 0l0 -4.46875l3.984375 0l0 -2.34375l-3.984375 0zm16.314575 2.671875l0 -2.015625l-8.375 0l0 2.015625l8.375 0z" fill-rule="nonzero"/><path fill="#eeeeee" d="m478.83075 71.41293l44.59845 0l0 28.472435l-44.59845 0z" fill-rule="evenodd"/><path fill="#000000" fill-opacity="0.0" d="m478.83078 63.908985l51.55905 0l0 35.968502l-51.55905 0z" fill-rule="evenodd"/><path fill="#000000" d="m495.3464 85.06086l0 -4.234375l-2.40625 0l0 4.234375l-4.0 0l0 2.34375l4.0 0l0 4.46875l2.40625 0l0 -4.46875l3.984375 0l0 -2.34375l-3.984375 0zm16.314575 2.671875l0 -2.015625l-8.375 0l0 2.015625l8.375 0z" fill-rule="nonzero"/><path fill="#000000" fill-opacity="0.0" d="m145.64099 39.137196c-8.844406 -8.830711 -35.745224 -2.6586456 -49.774254 14.445766c-14.02903 17.104416 -15.186256 45.141167 -2.8945923 61.25286c12.291664 16.111687 38.03222 20.298317 46.873573 11.450981" fill-rule="evenodd"/><path stroke="#595959" stroke-width="3.0" stroke-linejoin="round" stroke-linecap="butt" d="m128.00645 35.528446l-0.010978699 0.0015411377c-0.57533264 0.083976746 -1.156044 0.18099213 -1.7411575 0.29091644c-1.1702499 0.21985245 -2.3581772 0.49134827 -3.5562134 0.8135071c-9.584396 2.5772247 -19.816849 8.396347 -26.831367 16.948555c-14.02903 17.104404 -15.186256 45.14117 -2.8945923 61.252857c12.291664 16.111687 38.03222 20.298317 46.873573 11.4509735" fill-rule="evenodd"/><path stroke="#595959" stroke-width="3.0" stroke-linecap="butt" d="m127.01301 40.383034l14.331322 -2.1251106l-12.344421 -7.5840683z" fill-rule="evenodd"/><path fill="#eeeeee" d="m19.369478 71.41207l61.51181 0l0 28.472443l-61.51181 0z" fill-rule="evenodd"/><path fill="#000000" fill-opacity="0.0" d="m15.019973 63.90728l82.29921 0l0 28.472443l-82.29921 0z" fill-rule="evenodd"/><path fill="#000000" d="m29.660599 84.01228l-2.8125 3.40625l1.71875 1.203125l2.203125 -3.734375l2.203125 3.84375l1.71875 -1.265625l-2.734375 -3.375l4.0625 -0.953125l-0.625 -2.03125l-3.828125 1.625l0.359375 -4.5l-2.109375 0l0.328125 4.4375l-3.859375 -1.65625l-0.625 2.0l4.0 1.0zm14.673965 1.046875l0 -4.234375l-2.40625 0l0 4.234375l-4.0 0l0 2.34375l4.0 0l0 4.46875l2.40625 0l0 -4.46875l3.984375 0l0 -2.34375l-3.984375 0zm16.31459 2.671875l0 -2.015625l-8.375 0l0 2.015625l8.375 0zm13.830215 -2.125l-1.703125 -0.203125q0 0.359375 -0.125 0.703125q-0.125 0.328125 -0.34375 0.578125q-0.203125 0.25 -0.484375 0.40625q-0.265625 0.15625 -0.578125 0.15625q-0.28125 0 -0.53125 -0.0625q-0.25 -0.0625 -0.5 -0.1875q-0.25 -0.125 -0.5 -0.296875q-0.234375 -0.171875 -0.5 -0.390625q-0.390625 -0.328125 -0.78125 -0.59375q-0.375 -0.265625 -0.765625 -0.4375q-0.390625 -0.1875 -0.828125 -0.28125q-0.421875 -0.09375 -0.890625 -0.09375q-0.703125 0 -1.296875 0.28125q-0.578125 0.28125 -0.984375 0.765625q-0.421875 0.484375 -0.65625 1.15625q-0.234375 0.671875 -0.234375 1.453125l1.6875 0.203125q0 -0.359375 0.125 -0.671875q0.125 -0.328125 0.34375 -0.5625q0.203125 -0.25 0.484375 -0.390625q0.296875 -0.140625 0.609375 -0.140625q0.25 0 0.484375 0.046875q0.234375 0.046875 0.46875 0.171875q0.265625 0.109375 0.53125 0.296875q0.28125 0.171875 0.5625 0.40625q0.40625 0.359375 0.78125 0.625q0.390625 0.265625 0.78125 0.453125q0.390625 0.171875 0.796875 0.265625q0.40625 0.078125 0.875 0.078125q0.71875 0 1.296875 -0.28125q0.578125 -0.296875 1.0 -0.8125q0.421875 -0.5 0.640625 -1.171875q0.234375 -0.6875 0.234375 -1.46875z" fill-rule="nonzero"/><path fill="#000000" fill-opacity="0.0" d="m46.451443 392.6824l131.81102 0" fill-rule="evenodd"/><path stroke="#595959" stroke-width="3.0" stroke-linejoin="round" stroke-linecap="butt" d="m46.451443 392.6824l113.81102 0" fill-rule="evenodd"/><path fill="#595959" stroke="#595959" stroke-width="3.0" stroke-linecap="butt" d="m160.26247 397.6376l13.614288 -4.9552l-13.614288 -4.9552z" fill-rule="evenodd"/><path fill="#000000" fill-opacity="0.0" d="m36.52231 353.91077l194.3307 0l0 28.472443l-194.3307 0z" fill-rule="evenodd"/><path fill="#000000" d="m54.037933 378.27075l0 -11.375l-1.890625 0l-0.015625 7.796875l-3.671875 -7.796875l-1.90625 0l0 11.375l1.890625 0l0.015625 -7.828125l3.6875 7.828125l1.890625 0zm1.9609375 -4.3125l0 0.171875q0 0.921875 0.265625 1.703125q0.265625 0.78125 0.765625 1.359375q0.5 0.578125 1.234375 0.921875q0.734375 0.328125 1.671875 0.328125q0.921875 0 1.640625 -0.328125q0.734375 -0.34375 1.234375 -0.921875q0.5 -0.578125 0.765625 -1.359375q0.265625 -0.78125 0.265625 -1.703125l0 -0.171875q0 -0.921875 -0.265625 -1.703125q-0.265625 -0.78125 -0.765625 -1.359375q-0.5 -0.578125 -1.234375 -0.90625q-0.734375 -0.328125 -1.65625 -0.328125q-0.9375 0 -1.671875 0.328125q-0.71875 0.328125 -1.21875 0.90625q-0.5 0.578125 -0.765625 1.359375q-0.265625 0.78125 -0.265625 1.703125zm1.859375 0.171875l0 -0.171875q0 -0.546875 0.125 -1.046875q0.125 -0.515625 0.375 -0.90625q0.25 -0.375 0.640625 -0.59375q0.390625 -0.234375 0.921875 -0.234375q0.53125 0 0.921875 0.234375q0.390625 0.21875 0.640625 0.59375q0.25 0.390625 0.375 0.90625q0.125 0.5 0.125 1.046875l0 0.171875q0 0.5625 -0.125 1.078125q-0.125 0.5 -0.375 0.890625q-0.25 0.375 -0.640625 0.609375q-0.390625 0.21875 -0.90625 0.21875q-0.546875 0 -0.9375 -0.21875q-0.390625 -0.234375 -0.640625 -0.609375q-0.25 -0.390625 -0.375 -0.890625q-0.125 -0.515625 -0.125 -1.078125zm8.0859375 4.140625l1.859375 0l0 -6.03125q0.125 -0.21875 0.28125 -0.390625q0.171875 -0.1875 0.359375 -0.3125q0.25 -0.15625 0.546875 -0.25q0.296875 -0.09375 0.640625 -0.09375q0.40625 0 0.71875 0.09375q0.328125 0.09375 0.5625 0.296875q0.21875 0.21875 0.328125 0.578125q0.125 0.34375 0.125 0.859375l0 5.25l1.875 0l0 -5.28125q0 -0.890625 -0.21875 -1.515625q-0.203125 -0.625 -0.59375 -1.03125q-0.375 -0.40625 -0.921875 -0.59375q-0.53125 -0.1875 -1.1875 -0.1875q-0.484375 0 -0.9375 0.140625q-0.4375 0.140625 -0.8125 0.390625q-0.234375 0.171875 -0.453125 0.375q-0.203125 0.203125 -0.375 0.453125l-0.109375 -1.203125l-1.6875 0l0 8.453125zm16.664062 -4.25l0 -1.515625l-6.28125 0l0 1.515625l6.28125 0zm2.9609375 -4.203125l0 1.546875l2.609375 0l0 5.359375l-2.609375 0l0 1.546875l6.96875 0l0 -1.546875l-2.484375 0l0 -6.90625l-4.484375 0zm2.4375 -2.1875q0 0.296875 0.140625 0.515625q0.140625 0.21875 0.421875 0.3125q0.28125 0.078125 0.5 0.03125q0.234375 -0.046875 0.390625 -0.1875q0.328125 -0.09375 0.5 -0.34375q0.171875 -0.25 0.125 -0.59375q-0.046875 -0.34375 -0.3125 -0.546875q-0.25 -0.21875 -0.671875 -0.21875q-0.25 0 -0.453125 0.078125q-0.203125 0.0625 -0.34375 0.203125q-0.140625 0.140625 -0.21875 0.328125q-0.078125 0.1875 -0.078125 0.421875zm6.7421875 10.640625l1.859375 0l0 -6.03125q0.125 -0.21875 0.28125 -0.390625q0.171875 -0.1875 0.359375 -0.3125q0.25 -0.15625 0.546875 -0.25q0.296875 -0.09375 0.640625 -0.09375q0.40625 0 0.71875 0.09375q0.328125 0.09375 0.5625 0.296875q0.21875 0.21875 0.328125 0.578125q0.125 0.34375 0.125 0.859375l0 5.25l1.875 0l0 -5.28125q0 -0.890625 -0.21875 -1.515625q-0.203125 -0.625 -0.59375 -1.03125q-0.375 -0.40625 -0.921875 -0.59375q-0.53125 -0.1875 -1.1875 -0.1875q-0.484375 0 -0.9375 0.140625q-0.4375 0.140625 -0.8125 0.390625q-0.234375 0.171875 -0.453125 0.375q-0.203125 0.203125 -0.375 0.453125l-0.109375 -1.203125l-1.6875 0l0 8.453125zm12.3671875 0l1.640625 0l3.3125 -8.453125l-1.9375 0l-2.0625 6.125l-0.125 0.5625l-0.125 -0.5625l-2.09375 -6.125l-1.9375 0l3.328125 8.453125zm10.7734375 0.15625q1.234375 0 2.109375 -0.484375q0.875 -0.484375 1.296875 -1.09375l-1.0 -0.96875q-0.390625 0.5 -1.0 0.765625q-0.59375 0.265625 -1.296875 0.265625q-0.5 0 -0.9375 -0.171875q-0.421875 -0.171875 -0.734375 -0.484375q-0.3125 -0.296875 -0.5 -0.671875q-0.171875 -0.375 -0.25 -0.921875l0 -0.046875l5.859375 0l0 -0.796875q0 -0.90625 -0.25 -1.671875q-0.234375 -0.765625 -0.71875 -1.328125q-0.46875 -0.546875 -1.171875 -0.84375q-0.703125 -0.3125 -1.625 -0.3125q-0.8125 0 -1.546875 0.3125q-0.71875 0.296875 -1.265625 0.875q-0.546875 0.5625 -0.859375 1.375q-0.3125 0.796875 -0.3125 1.796875l0 0.3125q0 0.875 0.296875 1.625q0.3125 0.734375 0.859375 1.28125q0.5625 0.5625 1.328125 0.875q0.78125 0.3125 1.71875 0.3125zm-0.21875 -7.25q0.46875 0 0.8125 0.15625q0.359375 0.15625 0.59375 0.421875q0.25 0.28125 0.375 0.640625q0.140625 0.359375 0.140625 0.734375l0 0.125l-3.984375 0q0.09375 -0.484375 0.265625 -0.859375q0.1875 -0.390625 0.453125 -0.671875q0.265625 -0.265625 0.59375 -0.40625q0.34375 -0.140625 0.75 -0.140625zm11.7265625 -1.515625q-0.875 0 -1.609375 0.40625q-0.71875 0.40625 -1.234375 1.109375l0 -0.1875l-0.078125 -1.171875l-1.75 0l0 8.453125l1.859375 0l0 -5.21875q0.15625 -0.375 0.375 -0.65625q0.21875 -0.296875 0.53125 -0.484375q0.28125 -0.203125 0.65625 -0.296875q0.375 -0.09375 0.84375 -0.09375q0.421875 0 0.828125 0.046875q0.421875 0.046875 0.859375 0.140625l0.265625 -1.84375q-0.25 -0.078125 -0.671875 -0.140625q-0.421875 -0.0625 -0.875 -0.0625zm7.5078125 -1.90625l-1.875 0l0 2.0625l-2.046875 0l0 1.390625l2.046875 0l0 4.15625q0 0.8125 0.203125 1.390625q0.21875 0.578125 0.609375 0.953125q0.375 0.375 0.90625 0.5625q0.546875 0.171875 1.1875 0.171875q0.34375 0 0.703125 -0.046875q0.359375 -0.03125 0.6875 -0.09375q0.328125 -0.0625 0.609375 -0.15625q0.28125 -0.09375 0.484375 -0.21875l-0.203125 -1.28125q-0.140625 0.03125 -0.34375 0.078125q-0.203125 0.03125 -0.4375 0.0625q-0.25 0.046875 -0.515625 0.078125q-0.25 0.015625 -0.484375 0.015625q-0.34375 0 -0.625 -0.078125q-0.28125 -0.078125 -0.484375 -0.265625q-0.203125 -0.1875 -0.3125 -0.5q-0.109375 -0.3125 -0.109375 -0.78125l0 -4.046875l3.171875 0l0 -1.390625l-3.171875 0l0 -2.0625zm6.2734375 2.0625l0 1.546875l2.609375 0l0 5.359375l-2.609375 0l0 1.546875l6.96875 0l0 -1.546875l-2.484375 0l0 -6.90625l-4.484375 0zm2.4375 -2.1875q0 0.296875 0.140625 0.515625q0.140625 0.21875 0.421875 0.3125q0.28125 0.078125 0.5 0.03125q0.234375 -0.046875 0.390625 -0.1875q0.328125 -0.09375 0.5 -0.34375q0.171875 -0.25 0.125 -0.59375q-0.046875 -0.34375 -0.3125 -0.546875q-0.25 -0.21875 -0.671875 -0.21875q-0.25 0 -0.453125 0.078125q-0.203125 0.0625 -0.34375 0.203125q-0.140625 0.140625 -0.21875 0.328125q-0.078125 0.1875 -0.078125 0.421875zm14.1640625 6.5l0 -0.171875q0 -0.71875 -0.125 -1.359375q-0.125 -0.640625 -0.375 -1.15625q-0.1875 -0.375 -0.4375 -0.6875q-0.25 -0.328125 -0.5625 -0.546875q-0.359375 -0.265625 -0.828125 -0.40625q-0.453125 -0.140625 -1.0 -0.140625q-0.40625 0 -0.765625 0.078125q-0.359375 0.078125 -0.65625 0.25q-0.21875 0.125 -0.421875 0.296875q-0.1875 0.15625 -0.359375 0.359375l0 -4.375l-1.859375 0l0 12.0l1.6875 0l0.078125 -0.921875q0.140625 0.171875 0.296875 0.3125q0.15625 0.140625 0.328125 0.265625q0.328125 0.25 0.75 0.375q0.421875 0.125 0.9375 0.125q0.515625 0 0.9375 -0.140625q0.4375 -0.125 0.796875 -0.359375q0.4375 -0.28125 0.75 -0.71875q0.3125 -0.4375 0.5 -0.984375q0.15625 -0.453125 0.234375 -0.984375q0.09375 -0.53125 0.09375 -1.109375zm-1.859375 -0.171875l0 0.171875q0 0.34375 -0.046875 0.671875q-0.03125 0.328125 -0.109375 0.609375q-0.09375 0.375 -0.28125 0.6875q-0.171875 0.296875 -0.4375 0.484375q-0.203125 0.140625 -0.46875 0.234375q-0.25 0.078125 -0.578125 0.078125q-0.34375 0 -0.640625 -0.09375q-0.28125 -0.09375 -0.5 -0.25q-0.1875 -0.140625 -0.34375 -0.328125q-0.15625 -0.203125 -0.265625 -0.4375l0 -3.5q0.09375 -0.203125 0.21875 -0.375q0.140625 -0.171875 0.296875 -0.3125q0.234375 -0.1875 0.53125 -0.296875q0.3125 -0.109375 0.6875 -0.109375q0.3125 0 0.5625 0.078125q0.25 0.0625 0.453125 0.203125q0.296875 0.203125 0.46875 0.5q0.171875 0.296875 0.28125 0.65625q0.078125 0.296875 0.125 0.640625q0.046875 0.328125 0.046875 0.6875zm4.3984375 -7.6875l0 1.546875l2.671875 0l0 8.90625l-2.671875 0l0 1.546875l7.109375 0l0 -1.546875l-2.5625 0l0 -10.453125l-4.546875 0zm13.1796875 12.15625q1.234375 0 2.109375 -0.484375q0.875 -0.484375 1.296875 -1.09375l-1.0 -0.96875q-0.390625 0.5 -1.0 0.765625q-0.59375 0.265625 -1.296875 0.265625q-0.5 0 -0.9375 -0.171875q-0.421875 -0.171875 -0.734375 -0.484375q-0.3125 -0.296875 -0.5 -0.671875q-0.171875 -0.375 -0.25 -0.921875l0 -0.046875l5.859375 0l0 -0.796875q0 -0.90625 -0.25 -1.671875q-0.234375 -0.765625 -0.71875 -1.328125q-0.46875 -0.546875 -1.171875 -0.84375q-0.703125 -0.3125 -1.625 -0.3125q-0.8125 0 -1.546875 0.3125q-0.71875 0.296875 -1.265625 0.875q-0.546875 0.5625 -0.859375 1.375q-0.3125 0.796875 -0.3125 1.796875l0 0.3125q0 0.875 0.296875 1.625q0.3125 0.734375 0.859375 1.28125q0.5625 0.5625 1.328125 0.875q0.78125 0.3125 1.71875 0.3125zm-0.21875 -7.25q0.46875 0 0.8125 0.15625q0.359375 0.15625 0.59375 0.421875q0.25 0.28125 0.375 0.640625q0.140625 0.359375 0.140625 0.734375l0 0.125l-3.984375 0q0.09375 -0.484375 0.265625 -0.859375q0.1875 -0.390625 0.453125 -0.671875q0.265625 -0.265625 0.59375 -0.40625q0.34375 -0.140625 0.75 -0.140625z" fill-rule="nonzero"/><path fill="#000000" d="m185.67856 367.677l0 -1.03125l-1.96875 0l0 -1.953125l-1.25 0l0 1.953125l-1.9375 0l0 1.03125l1.9375 0l0 4.59375l1.25 0l0 -4.59375l1.96875 0z" fill-rule="nonzero"/><path fill="#000000" fill-opacity="0.0" d="m46.451443 348.1601l95.27559 0" fill-rule="evenodd"/><path stroke="#595959" stroke-width="3.0" stroke-linejoin="round" stroke-linecap="butt" d="m46.451443 348.1601l77.27559 0" fill-rule="evenodd"/><path stroke="#595959" stroke-width="3.0" stroke-linecap="butt" d="m123.727036 353.1153l13.614288 -4.9552l-13.614288 -4.9552z" fill-rule="evenodd"/><path fill="#000000" fill-opacity="0.0" d="m36.52231 309.38846l148.8189 0l0 28.472443l-148.8189 0z" fill-rule="evenodd"/><path fill="#000000" d="m46.975433 322.37344l0 1.546875l2.375 0l0 8.28125l-2.375 0l0 1.546875l6.703125 0l0 -1.546875l-2.4375 0l0 -8.28125l2.4375 0l0 -1.546875l-6.703125 0zm9.3671875 11.375l1.859375 0l0 -6.03125q0.125 -0.21875 0.28125 -0.390625q0.171875 -0.1875 0.359375 -0.3125q0.25 -0.15625 0.546875 -0.25q0.296875 -0.09375 0.640625 -0.09375q0.40625 0 0.71875 0.09375q0.328125 0.09375 0.5625 0.296875q0.21875 0.21875 0.328125 0.578125q0.125 0.34375 0.125 0.859375l0 5.25l1.875 0l0 -5.28125q0 -0.890625 -0.21875 -1.515625q-0.203125 -0.625 -0.59375 -1.03125q-0.375 -0.40625 -0.921875 -0.59375q-0.53125 -0.1875 -1.1875 -0.1875q-0.484375 0 -0.9375 0.140625q-0.4375 0.140625 -0.8125 0.390625q-0.234375 0.171875 -0.453125 0.375q-0.203125 0.203125 -0.375 0.453125l-0.109375 -1.203125l-1.6875 0l0 8.453125zm12.3671875 0l1.640625 0l3.3125 -8.453125l-1.9375 0l-2.0625 6.125l-0.125 0.5625l-0.125 -0.5625l-2.09375 -6.125l-1.9375 0l3.328125 8.453125zm10.7734375 0.15625q1.234375 0 2.109375 -0.484375q0.875 -0.484375 1.296875 -1.09375l-1.0 -0.96875q-0.390625 0.5 -1.0 0.765625q-0.59375 0.265625 -1.296875 0.265625q-0.5 0 -0.9375 -0.171875q-0.421875 -0.171875 -0.734375 -0.484375q-0.3125 -0.296875 -0.5 -0.671875q-0.171875 -0.375 -0.25 -0.921875l0 -0.046875l5.859375 0l0 -0.796875q0 -0.90625 -0.25 -1.671875q-0.234375 -0.765625 -0.71875 -1.328125q-0.46875 -0.546875 -1.171875 -0.84375q-0.703125 -0.3125 -1.625 -0.3125q-0.8125 0 -1.546875 0.3125q-0.71875 0.296875 -1.265625 0.875q-0.546875 0.5625 -0.859375 1.375q-0.3125 0.796875 -0.3125 1.796875l0 0.3125q0 0.875 0.296875 1.625q0.3125 0.734375 0.859375 1.28125q0.5625 0.5625 1.328125 0.875q0.78125 0.3125 1.71875 0.3125zm-0.21875 -7.25q0.46875 0 0.8125 0.15625q0.359375 0.15625 0.59375 0.421875q0.25 0.28125 0.375 0.640625q0.140625 0.359375 0.140625 0.734375l0 0.125l-3.984375 0q0.09375 -0.484375 0.265625 -0.859375q0.1875 -0.390625 0.453125 -0.671875q0.265625 -0.265625 0.59375 -0.40625q0.34375 -0.140625 0.75 -0.140625zm11.7265625 -1.515625q-0.875 0 -1.609375 0.40625q-0.71875 0.40625 -1.234375 1.109375l0 -0.1875l-0.078125 -1.171875l-1.75 0l0 8.453125l1.859375 0l0 -5.21875q0.15625 -0.375 0.375 -0.65625q0.21875 -0.296875 0.53125 -0.484375q0.28125 -0.203125 0.65625 -0.296875q0.375 -0.09375 0.84375 -0.09375q0.421875 0 0.828125 0.046875q0.421875 0.046875 0.859375 0.140625l0.265625 -1.84375q-0.25 -0.078125 -0.671875 -0.140625q-0.421875 -0.0625 -0.875 -0.0625zm7.5078125 -1.90625l-1.875 0l0 2.0625l-2.046875 0l0 1.390625l2.046875 0l0 4.15625q0 0.8125 0.203125 1.390625q0.21875 0.578125 0.609375 0.953125q0.375 0.375 0.90625 0.5625q0.546875 0.171875 1.1875 0.171875q0.34375 0 0.703125 -0.046875q0.359375 -0.03125 0.6875 -0.09375q0.328125 -0.0625 0.609375 -0.15625q0.28125 -0.09375 0.484375 -0.21875l-0.203125 -1.28125q-0.140625 0.03125 -0.34375 0.078125q-0.203125 0.03125 -0.4375 0.0625q-0.25 0.046875 -0.515625 0.078125q-0.25 0.015625 -0.484375 0.015625q-0.34375 0 -0.625 -0.078125q-0.28125 -0.078125 -0.484375 -0.265625q-0.203125 -0.1875 -0.3125 -0.5q-0.109375 -0.3125 -0.109375 -0.78125l0 -4.046875l3.171875 0l0 -1.390625l-3.171875 0l0 -2.0625zm6.2734375 2.0625l0 1.546875l2.609375 0l0 5.359375l-2.609375 0l0 1.546875l6.96875 0l0 -1.546875l-2.484375 0l0 -6.90625l-4.484375 0zm2.4375 -2.1875q0 0.296875 0.140625 0.515625q0.140625 0.21875 0.421875 0.3125q0.28125 0.078125 0.5 0.03125q0.234375 -0.046875 0.390625 -0.1875q0.328125 -0.09375 0.5 -0.34375q0.171875 -0.25 0.125 -0.59375q-0.046875 -0.34375 -0.3125 -0.546875q-0.25 -0.21875 -0.671875 -0.21875q-0.25 0 -0.453125 0.078125q-0.203125 0.0625 -0.34375 0.203125q-0.140625 0.140625 -0.21875 0.328125q-0.078125 0.1875 -0.078125 0.421875zm14.1640625 6.5l0 -0.171875q0 -0.71875 -0.125 -1.359375q-0.125 -0.640625 -0.375 -1.15625q-0.1875 -0.375 -0.4375 -0.6875q-0.25 -0.328125 -0.5625 -0.546875q-0.359375 -0.265625 -0.828125 -0.40625q-0.453125 -0.140625 -1.0 -0.140625q-0.40625 0 -0.765625 0.078125q-0.359375 0.078125 -0.65625 0.25q-0.21875 0.125 -0.421875 0.296875q-0.1875 0.15625 -0.359375 0.359375l0 -4.375l-1.859375 0l0 12.0l1.6875 0l0.078125 -0.921875q0.140625 0.171875 0.296875 0.3125q0.15625 0.140625 0.328125 0.265625q0.328125 0.25 0.75 0.375q0.421875 0.125 0.9375 0.125q0.515625 0 0.9375 -0.140625q0.4375 -0.125 0.796875 -0.359375q0.4375 -0.28125 0.75 -0.71875q0.3125 -0.4375 0.5 -0.984375q0.15625 -0.453125 0.234375 -0.984375q0.09375 -0.53125 0.09375 -1.109375zm-1.859375 -0.171875l0 0.171875q0 0.34375 -0.046875 0.671875q-0.03125 0.328125 -0.109375 0.609375q-0.09375 0.375 -0.28125 0.6875q-0.171875 0.296875 -0.4375 0.484375q-0.203125 0.140625 -0.46875 0.234375q-0.25 0.078125 -0.578125 0.078125q-0.34375 0 -0.640625 -0.09375q-0.28125 -0.09375 -0.5 -0.25q-0.1875 -0.140625 -0.34375 -0.328125q-0.15625 -0.203125 -0.265625 -0.4375l0 -3.5q0.09375 -0.203125 0.21875 -0.375q0.140625 -0.171875 0.296875 -0.3125q0.234375 -0.1875 0.53125 -0.296875q0.3125 -0.109375 0.6875 -0.109375q0.3125 0 0.5625 0.078125q0.25 0.0625 0.453125 0.203125q0.296875 0.203125 0.46875 0.5q0.171875 0.296875 0.28125 0.65625q0.078125 0.296875 0.125 0.640625q0.046875 0.328125 0.046875 0.6875zm4.3984375 -7.6875l0 1.546875l2.671875 0l0 8.90625l-2.671875 0l0 1.546875l7.109375 0l0 -1.546875l-2.5625 0l0 -10.453125l-4.546875 0zm13.1796875 12.15625q1.234375 0 2.109375 -0.484375q0.875 -0.484375 1.296875 -1.09375l-1.0 -0.96875q-0.390625 0.5 -1.0 0.765625q-0.59375 0.265625 -1.296875 0.265625q-0.5 0 -0.9375 -0.171875q-0.421875 -0.171875 -0.734375 -0.484375q-0.3125 -0.296875 -0.5 -0.671875q-0.171875 -0.375 -0.25 -0.921875l0 -0.046875l5.859375 0l0 -0.796875q0 -0.90625 -0.25 -1.671875q-0.234375 -0.765625 -0.71875 -1.328125q-0.46875 -0.546875 -1.171875 -0.84375q-0.703125 -0.3125 -1.625 -0.3125q-0.8125 0 -1.546875 0.3125q-0.71875 0.296875 -1.265625 0.875q-0.546875 0.5625 -0.859375 1.375q-0.3125 0.796875 -0.3125 1.796875l0 0.3125q0 0.875 0.296875 1.625q0.3125 0.734375 0.859375 1.28125q0.5625 0.5625 1.328125 0.875q0.78125 0.3125 1.71875 0.3125zm-0.21875 -7.25q0.46875 0 0.8125 0.15625q0.359375 0.15625 0.59375 0.421875q0.25 0.28125 0.375 0.640625q0.140625 0.359375 0.140625 0.734375l0 0.125l-3.984375 0q0.09375 -0.484375 0.265625 -0.859375q0.1875 -0.390625 0.453125 -0.671875q0.265625 -0.265625 0.59375 -0.40625q0.34375 -0.140625 0.75 -0.140625z" fill-rule="nonzero"/><path fill="#000000" fill-opacity="0.0" d="m919.78687 248.0198c9.296204 8.365204 35.854004 0.79615784 48.9823 -17.028854c13.128235 -17.825027 12.826965 -45.90602 -0.2921753 -61.368607c-13.119141 -15.46257 -39.056152 -18.306717 -47.430298 -9.00412" fill-rule="evenodd"/><path stroke="#595959" stroke-width="3.0" stroke-linejoin="round" stroke-linecap="butt" d="m919.7868 248.0198c9.296265 8.365234 35.854126 0.79615784 48.9823 -17.028854c13.128296 -17.825027 12.827026 -45.90602 -0.29205322 -61.36859c-6.5595703 -7.7312927 -16.32367 -12.307968 -25.494629 -13.789001c-1.1463013 -0.18513489 -2.2834473 -0.3218994 -3.4038696 -0.4104004c-0.28009033 -0.022125244 -0.55914307 -0.041229248 -0.8369751 -0.05732727c-0.13897705 -0.008056641 -0.27764893 -0.015350342 -0.41601562 -0.021896362l-0.069885254 -0.0029296875" fill-rule="evenodd"/><path stroke="#595959" stroke-width="3.0" stroke-linecap="butt" d="m936.80286 150.60338l-11.563232 8.729004l14.468811 0.74586487z" fill-rule="evenodd"/><path fill="#eeeeee" d="m979.95013 240.2231l43.212585 0l0 28.472427l-43.212585 0z" fill-rule="evenodd"/><path fill="#000000" fill-opacity="0.0" d="m979.95013 235.15224l115.02362 0l0 35.96849l-115.02362 0z" fill-rule="evenodd"/><path fill="#000000" d="m994.59076 255.25723l-2.8125 3.40625l1.71875 1.203125l2.203125 -3.734375l2.203125 3.84375l1.71875 -1.265625l-2.734375 -3.375l4.0625 -0.953125l-0.625 -2.03125l-3.828125 1.625l0.359375 -4.5l-2.109375 0l0.328125 4.4375l-3.859375 -1.65625l-0.625 2.0l4.0 1.0zm12.79895 0l-2.8125 3.40625l1.71875 1.203125l2.203125 -3.734375l2.203125 3.84375l1.71875 -1.265625l-2.734375 -3.375l4.0625 -0.953125l-0.625 -2.03125l-3.828125 1.625l0.359375 -4.5l-2.109375 0l0.328125 4.4375l-3.859375 -1.65625l-0.625 2.0l4.0 1.0z" fill-rule="nonzero"/><path fill="#000000" fill-opacity="0.0" d="m907.58936 289.54483c7.536865 9.98761 35.064026 7.6246033 51.354675 -7.371338c16.29071 -14.995911 21.34497 -42.624756 11.405457 -60.310516c-9.939575 -17.68576 -34.872925 -25.428467 -44.87036 -17.892944" fill-rule="evenodd"/><path stroke="#595959" stroke-width="3.0" stroke-linejoin="round" stroke-linecap="butt" d="m907.5893 289.54483c7.5369263 9.98761 35.064087 7.6245728 51.354797 -7.371338c16.29065 -14.995911 21.34497 -42.624756 11.4053955 -60.3105c-4.9697266 -8.8428955 -13.687988 -15.200012 -22.413452 -18.40445c-1.0906982 -0.40057373 -2.1815186 -0.75187683 -3.2650757 -1.052597c-0.27093506 -0.07519531 -0.54138184 -0.1472168 -0.8112793 -0.2160492c-0.13494873 -0.034423828 -0.2697754 -0.0680542 -0.4043579 -0.100875854l-0.07672119 -0.018249512" fill-rule="evenodd"/><path fill="#595959" stroke="#595959" stroke-width="3.0" stroke-linecap="butt" d="m942.8558 197.14322l-13.015442 6.3640594l14.061096 3.4910126z" fill-rule="evenodd"/><path fill="#eeeeee" d="m982.72595 188.48466l61.51184 0l0 28.472427l-61.51184 0z" fill-rule="evenodd"/><path fill="#000000" fill-opacity="0.0" d="m978.37646 180.97986l82.299194 0l0 28.472443l-82.299194 0z" fill-rule="evenodd"/><path fill="#000000" d="m993.0171 201.08487l-2.8125 3.40625l1.71875 1.203125l2.203125 -3.734375l2.203125 3.84375l1.71875 -1.265625l-2.734375 -3.375l4.0625 -0.953125l-0.625 -2.03125l-3.828125 1.625l0.359375 -4.5l-2.109375 0l0.328125 4.4375l-3.859375 -1.65625l-0.625 2.0l4.0 1.0zm14.67395 1.046875l0 -4.234375l-2.40625 0l0 4.234375l-4.0 0l0 2.34375l4.0 0l0 4.46875l2.40625 0l0 -4.46875l3.984375 0l0 -2.34375l-3.984375 0zm16.314575 2.671875l0 -2.015625l-8.375 0l0 2.015625l8.375 0zm13.8302 -2.125l-1.703125 -0.203125q0 0.359375 -0.125 0.703125q-0.125 0.328125 -0.34375 0.578125q-0.203125 0.25 -0.484375 0.40625q-0.265625 0.15625 -0.578125 0.15625q-0.28125 0 -0.53125 -0.0625q-0.25 -0.0625 -0.5 -0.1875q-0.25 -0.125 -0.5 -0.296875q-0.234375 -0.171875 -0.5 -0.390625q-0.390625 -0.328125 -0.78125 -0.59375q-0.375 -0.265625 -0.765625 -0.4375q-0.390625 -0.1875 -0.828125 -0.28125q-0.421875 -0.09375 -0.890625 -0.09375q-0.703125 0 -1.296875 0.28125q-0.578125 0.28125 -0.984375 0.765625q-0.421875 0.484375 -0.65625 1.15625q-0.234375 0.671875 -0.234375 1.453125l1.6875 0.203125q0 -0.359375 0.125 -0.671875q0.125 -0.328125 0.34375 -0.5625q0.203125 -0.25 0.484375 -0.390625q0.296875 -0.140625 0.609375 -0.140625q0.25 0 0.484375 0.046875q0.234375 0.046875 0.46875 0.171875q0.265625 0.109375 0.53125 0.296875q0.28125 0.171875 0.5625 0.40625q0.40625 0.359375 0.78125 0.625q0.390625 0.265625 0.78125 0.453125q0.390625 0.171875 0.796875 0.265625q0.40625 0.078125 0.875 0.078125q0.71875 0 1.296875 -0.28125q0.578125 -0.296875 1.0 -0.8125q0.421875 -0.5 0.640625 -1.171875q0.234375 -0.6875 0.234375 -1.46875z" fill-rule="nonzero"/></g></svg>